<svg version="1.1" id="Layer_1" xmlns="http://www.w3.org/2000/svg" xmlns:xlink="http://www.w3.org/1999/xlink" x="0px" y="0px"
	 width="100%" viewBox="80 400 1800 140" enable-background="new 80 400 1800 140" xml:space="preserve"> 
M106.674103,432.378662 
	C109.203133,438.767181 111.554863,445.232788 114.293404,451.530182 
	C123.667778,473.087036 133.149475,494.597473 142.683655,516.084167 
	C143.565445,518.071472 145.110382,519.764465 147.007538,522.570496 
	C158.690933,492.696594 169.782501,464.335938 180.874054,435.975311 
	C182.001404,459.668701 182.153366,482.973389 181.927017,506.274445 
	C181.835800,515.666687 181.375748,515.713379 171.345383,518.162415 
	C170.675171,518.325989 170.261658,519.540955 169.414352,520.695190 
	C187.154022,520.695190 204.032089,520.695190 222.395706,520.695190 
	C220.682907,519.239014 220.065155,518.277710 219.281403,518.114746 
	C211.115829,516.416626 210.998886,516.422546 210.988373,508.266418 
	C210.955292,482.612335 210.974792,456.958099 211.012924,431.304016 
	C211.022095,425.126160 212.003708,424.116943 218.083450,422.943085 
	C219.216675,422.724243 220.238754,421.929626 221.312119,421.400696 
	C221.145508,420.995087 220.978882,420.589447 220.812271,420.183838 
	C208.357315,420.183838 195.902344,420.183838 183.029449,420.183838 
	C175.603912,439.502808 168.159943,458.869751 160.715973,478.236694 
	C160.243393,478.278473 159.770813,478.320251 159.298233,478.362061 
	C158.192886,476.141174 157.001175,473.958588 155.996002,471.693268 
	C148.834442,455.553131 141.743973,439.381256 134.512878,423.272491 
	C133.931961,421.978363 132.481522,420.158112 131.409424,420.140381 
	C118.318474,419.924286 105.222710,419.999878 92.128189,419.999878 
	C91.937317,420.595764 91.746445,421.191650 91.555580,421.787567 
	C93.296608,422.526154 95.149986,423.080475 96.747597,424.054352 
	C98.403046,425.063507 100.575294,426.200989 101.150528,427.781403 
	C102.054375,430.264557 102.046616,433.169037 102.012581,435.889984 
	C101.726044,458.795349 101.008011,481.702423 101.203323,504.602295 
	C101.260399,511.293762 98.832977,515.077209 93.442291,517.935852 
	C92.673744,518.343445 92.262123,519.424072 91.333038,520.662842 
	C101.372658,520.662842 110.543808,520.662842 119.714958,520.662842 
	C119.845497,520.276184 119.976036,519.889587 120.106575,519.502930 
	C119.050087,518.995972 118.041763,518.310303 116.929428,518.010620 
	C108.475777,515.732910 106.058678,513.314148 105.927330,504.625366 
	C105.562317,480.479370 105.542953,456.328156 105.791679,432.319550 
	C105.791679,432.319550 106.034683,431.966797 106.674103,432.378662 
M614.142456,439.738800 
	C612.762268,443.494568 611.382080,447.250366 609.458496,451.059235 
	C609.382263,451.364929 609.305969,451.670624 609.113220,452.689056 
	C608.747192,453.810364 608.381165,454.931702 607.475037,456.073029 
	C607.406921,456.372589 607.338806,456.672150 607.161987,457.738525 
	C605.777161,461.500763 604.392334,465.263000 602.465637,469.065277 
	C602.392334,469.368347 602.319031,469.671417 602.131104,470.691315 
	C601.760803,471.818665 601.390503,472.946014 600.482361,474.079254 
	C600.417053,474.376160 600.351746,474.673035 600.179382,475.737610 
	C598.790344,479.505676 597.401245,483.273743 595.471313,487.069885 
	C595.401062,487.370880 595.330750,487.671875 595.148804,488.738739 
	C593.767212,492.496918 592.385681,496.255096 590.461548,500.061523 
	C590.384705,500.366425 590.307861,500.671356 590.109863,501.721313 
	C587.064392,506.585480 584.018860,511.449677 580.450867,516.111572 
	C580.245483,516.414307 580.040161,516.716980 579.107849,517.349792 
	C572.049133,518.965942 566.490662,518.906067 566.424072,508.621307 
	C566.412170,506.789520 566.337830,504.958038 566.337158,503.126404 
	C566.330200,485.136292 566.293274,467.146057 566.353455,449.156128 
	C566.375732,442.500641 566.634155,435.845978 566.782532,429.190887 
	C566.873535,425.110443 569.203918,423.383728 573.030579,422.940521 
	C574.176758,422.807770 575.240051,421.959229 576.341309,421.438629 
	C576.185913,420.958038 576.030518,420.477448 575.875122,419.996857 
	C564.077515,419.996857 552.278931,419.933472 540.483704,420.102448 
	C539.395142,420.117981 537.748596,421.390808 537.339355,422.455811 
	C532.808899,434.244812 528.527161,446.129120 524.062012,457.943726 
	C521.399231,464.989227 518.530762,471.956970 515.278992,480.159851 
	C506.042755,459.323456 497.330994,439.670258 488.736755,420.282104 
	C474.591888,420.282104 460.849396,420.282104 445.728027,420.282104 
	C447.292847,421.714172 447.861237,422.644989 448.642273,422.885590 
	C456.484863,425.301788 457.554504,426.532959 457.634796,434.660919 
	C457.731873,444.487915 457.710968,454.316833 457.655609,464.144409 
	C457.580566,477.466766 457.620087,490.794678 457.215485,504.108185 
	C457.029633,510.221985 455.396149,515.940674 448.362274,518.037354 
	C447.641357,518.252258 447.216309,519.459717 446.235992,520.761719 
	C456.409180,520.761719 465.638000,520.761719 474.866821,520.761719 
	C474.567780,519.223999 473.843994,518.294434 472.934753,518.047363 
	C463.578156,515.505066 461.025146,512.325134 461.010925,502.800598 
	C460.977783,480.646240 460.967773,458.491913 460.948608,436.337555 
	C460.947449,434.997986 460.948486,433.658417 460.948486,432.318848 
	C461.229004,432.325470 461.509491,432.332092 461.790009,432.338715 
	C474.752960,461.964935 487.715881,491.591156 501.275452,522.580872 
	C502.834747,520.197937 503.840820,519.065186 504.391418,517.742859 
	C506.024872,513.819885 507.452759,509.811920 509.007080,505.855255 
	C518.018860,482.914917 527.043945,459.979767 536.552734,436.984741 
	C536.820129,437.218872 537.128113,437.301361 537.536804,438.135925 
	C537.536743,460.749115 537.595764,483.362579 537.507874,505.975403 
	C537.472168,515.167908 536.589172,516.028320 527.772278,518.130066 
	C526.979492,518.319092 526.410950,519.448425 524.898376,521.005859 
	C552.426208,521.005859 578.511230,521.022278 604.595764,520.921143 
	C605.331787,520.918335 606.063049,519.660339 606.880127,518.484680 
	C606.594055,518.402161 606.307983,518.319641 605.207642,518.046631 
	C596.275452,517.700745 592.099792,512.615967 594.276306,504.161285 
	C595.894592,497.875122 597.943970,491.683411 600.171814,485.584961 
	C600.603088,484.404388 602.729248,483.156799 604.105347,483.119904 
	C612.544617,482.893524 620.993103,483.006561 629.608704,483.006561 
	C630.525452,485.741882 631.410583,488.382751 632.090576,491.529175 
	C632.397400,491.672333 632.704163,491.815491 633.271606,492.681335 
	C634.266296,495.793762 635.260986,498.906158 636.074829,502.538086 
	C636.382935,502.693054 636.691040,502.848022 637.201111,503.658295 
	C637.235657,504.113831 637.270264,504.569397 637.094604,505.527161 
	C637.401001,505.667206 637.707397,505.807251 638.290039,506.689148 
	C640.844543,514.814880 640.330933,517.190308 631.604614,518.155823 
	C631.090027,518.212769 630.697266,519.371216 630.116760,520.513062 
	C630.405273,520.608337 630.693726,520.703613 631.904175,520.991333 
	C647.602295,520.931580 663.300476,520.871826 679.931580,520.912659 
	C707.374146,520.912659 734.816650,520.912659 761.883667,520.912659 
	C761.883667,508.020050 761.883667,495.583710 761.883667,483.147369 
	C761.342590,482.895844 760.801514,482.644318 760.260437,482.392792 
	C759.231995,484.073181 757.801636,485.630402 757.242554,487.454681 
	C754.310852,497.018433 749.562744,505.377258 742.243103,512.316284 
	C736.828918,517.448853 730.478027,519.047852 723.399292,517.855835 
	C722.027588,517.624817 720.454163,515.851318 719.863464,514.421692 
	C719.135437,512.660034 719.168884,510.513733 719.165710,508.533173 
	C719.126282,484.040710 719.134583,459.548187 719.153015,435.055664 
	C719.154297,433.394592 719.306396,431.731262 719.439209,430.073059 
	C719.818115,425.342651 722.257446,422.930939 727.144165,422.929199 
	C728.460815,422.928741 729.777161,422.117432 731.093689,421.678314 
	C730.958313,421.254608 730.822876,420.830902 730.687500,420.407196 
	C713.869873,420.407196 697.052246,420.407196 679.585632,420.407196 
	C680.362244,421.607391 680.620422,422.552399 681.172424,422.777832 
	C690.086487,426.418365 690.210022,426.506622 690.218811,435.840607 
	C690.240967,459.333405 690.260681,482.826324 690.206116,506.319000 
	C690.183350,516.101746 688.542664,517.749207 678.349426,517.941101 
	C675.717346,514.309509 672.205933,511.028076 670.597229,506.988861 
	C660.822327,482.445740 651.376648,457.769409 642.036011,433.056274 
	C636.858154,419.356720 637.046326,419.285614 621.459717,420.077606 
	C621.386841,420.377502 621.313965,420.677429 621.125000,421.691986 
	C620.756042,422.816101 620.387024,423.940247 619.478760,425.076172 
	C619.412842,425.374298 619.346863,425.672455 619.175598,426.738373 
	C617.787292,430.504333 616.398987,434.270325 614.469421,438.068329 
	C614.398132,438.370026 614.326843,438.671722 614.142456,439.738800 
M1123.010864,494.789246 
	C1123.361816,498.324463 1123.385010,501.930756 1124.133057,505.379822 
	C1125.617065,512.220947 1127.617676,519.450684 1135.695679,520.763489 
	C1142.132446,521.809570 1148.934937,521.648926 1155.437744,520.873169 
	C1159.646973,520.370972 1163.608765,517.795654 1168.143799,515.962463 
	C1166.944214,514.682983 1166.765503,514.331299 1166.500977,514.245972 
	C1166.046265,514.099487 1165.510742,513.991333 1165.056396,514.088196 
	C1158.508789,515.484436 1157.433350,514.906982 1156.009521,508.592316 
	C1154.892212,503.636902 1153.835693,498.657349 1153.033447,493.643524 
	C1151.338501,483.049438 1146.191040,475.705841 1135.054565,473.639954 
	C1132.395752,473.146729 1129.768677,472.483429 1126.056641,471.661255 
	C1135.953369,469.580322 1144.273071,467.201019 1150.566895,460.041656 
	C1158.830933,450.641235 1158.101074,431.968109 1144.555054,425.793518 
	C1135.743164,421.776855 1126.634521,420.311798 1117.269287,420.120880 
	C1101.285889,419.795044 1085.291382,420.002258 1069.301636,420.008636 
	C1068.225952,420.009064 1067.150146,420.202942 1066.074463,420.306824 
	C1065.905640,420.827362 1065.736694,421.347931 1065.567871,421.868469 
	C1067.341797,422.579407 1069.213013,423.118500 1070.861938,424.050812 
	C1072.431641,424.938446 1074.439087,425.957092 1075.049805,427.420654 
	C1075.941284,429.556824 1075.988281,432.141876 1075.993652,434.536499 
	C1076.049072,458.854279 1076.177124,483.173798 1075.934326,507.489319 
	C1075.851074,515.827759 1075.389282,515.783936 1067.288208,518.163330 
	C1066.625732,518.357910 1066.267578,519.587769 1065.548096,520.666138 
	C1082.521240,520.666138 1098.719238,520.666138 1114.917114,520.666138 
	C1115.041382,520.271729 1115.165771,519.877380 1115.290039,519.482971 
	C1114.272949,518.995422 1113.241211,518.062927 1112.241211,518.095764 
	C1107.395386,518.254944 1105.137085,515.549988 1105.074951,511.232117 
	C1104.888794,498.279114 1105.007935,485.321716 1105.007935,472.406403 
	C1114.407837,471.432770 1119.329224,474.929962 1120.956177,483.593903 
	C1121.604248,487.045868 1122.010986,490.543182 1123.010864,494.789246 
M1832.210938,428.173065 
	C1821.859375,422.493561 1810.544189,420.422241 1798.975464,420.152740 
	C1782.654053,419.772552 1766.318115,420.010712 1749.988403,420.008606 
	C1749.067749,420.008484 1748.147217,420.226532 1747.226562,420.343079 
	C1747.050293,420.858276 1746.873901,421.373505 1746.697632,421.888733 
	C1748.257935,422.589417 1749.879150,423.182159 1751.362305,424.019531 
	C1753.027710,424.959869 1755.461304,425.805176 1755.973877,427.253510 
	C1756.975586,430.084076 1757.170410,433.304047 1757.181641,436.364716 
	C1757.267334,459.526184 1757.239624,482.688141 1757.204346,505.849884 
	C1757.201416,507.828003 1757.060181,509.839386 1756.680664,511.776062 
	C1756.011230,515.191711 1754.637817,517.731689 1750.267578,517.167725 
	C1749.226318,517.033325 1747.930298,518.872803 1746.751465,519.804321 
	C1747.043823,520.205078 1747.336060,520.605835 1747.628296,521.006592 
	C1762.444458,521.006592 1777.260498,521.023743 1792.076660,520.993408 
	C1795.406982,520.986572 1798.794434,521.169067 1802.055542,520.643860 
	C1808.825562,519.553284 1815.545166,519.282715 1822.189209,516.187805 
	C1838.627319,508.530670 1849.546509,497.019623 1852.330933,478.817017 
	C1855.081055,460.837585 1851.484131,439.824066 1832.210938,428.173065 
M1198.424683,424.001312 
	C1190.654053,427.004456 1184.234009,431.850769 1179.520630,438.684631 
	C1169.339355,453.446503 1166.486450,469.498688 1171.275757,486.917908 
	C1175.992554,504.073090 1186.894531,514.944885 1203.931274,519.673035 
	C1213.962280,522.456909 1224.168213,522.797424 1234.419434,520.994934 
	C1249.795898,518.291382 1262.083374,510.802460 1269.878540,497.035492 
	C1276.327515,485.646149 1278.115479,473.420380 1276.110474,460.367310 
	C1273.718628,444.794403 1266.313721,432.950043 1252.225952,425.763916 
	C1234.907593,416.929901 1217.058716,417.101166 1198.424683,424.001312 
M991.500122,419.995728 
	C984.534851,419.995728 977.569580,419.995728 970.604309,419.995728 
	C970.442566,420.482849 970.280823,420.969940 970.119080,421.457062 
	C971.384277,422.119568 972.594116,423.187134 973.924988,423.368958 
	C977.999084,423.925537 979.576660,426.679016 980.215759,430.150574 
	C980.634094,432.422699 980.605896,434.795074 980.609070,437.122742 
	C980.636475,457.119110 980.636169,477.115601 980.617065,497.112030 
	C980.613037,501.275787 980.666077,505.450775 980.387878,509.600128 
	C980.070374,514.334595 978.304932,517.962036 972.676025,518.114807 
	C971.811523,518.138245 970.973022,519.121521 970.122498,519.660828 
	C970.278564,520.010193 970.434570,520.359497 970.590637,520.708862 
	C988.656677,520.708862 1006.722717,520.708862 1024.788818,520.708862 
	C1024.899902,520.210815 1025.011108,519.712708 1025.122192,519.214661 
	C1023.438110,518.809082 1021.765320,518.116516 1020.067810,518.049255 
	C1013.821655,517.802063 1010.269226,515.984131 1010.102966,511.491272 
	C1009.729431,501.401001 1009.985840,491.287384 1009.985840,480.734314 
	C1013.648438,480.734314 1017.318909,480.955139 1020.954224,480.691101 
	C1030.293457,480.012817 1039.316895,478.307770 1047.321411,472.856750 
	C1059.955811,464.252808 1064.495728,447.303253 1056.850952,435.242615 
	C1050.887085,425.833954 1041.203735,422.097809 1030.865234,421.186188 
	C1018.140747,420.064209 1005.293945,420.329834 991.500122,419.995728 
M1418.500000,521.009277 
	C1435.593750,521.009277 1452.687378,521.009277 1469.508545,521.009277 
	C1469.508545,508.425140 1469.508545,496.397552 1469.508545,483.747375 
	C1467.410156,484.329834 1465.672607,484.812164 1464.200806,485.220703 
	C1464.587524,487.314758 1465.387329,488.874451 1465.012451,490.063934 
	C1462.543457,497.897766 1459.809692,505.366028 1453.511597,511.480927 
	C1448.316406,516.525024 1442.436401,517.831177 1436.060913,517.962952 
	C1427.571045,518.138428 1427.008301,517.227173 1426.991943,508.728973 
	C1426.976318,500.566284 1426.987671,492.403503 1426.987427,484.240784 
	C1426.987305,480.167450 1426.987427,476.094116 1426.987427,471.055389 
	C1430.949707,472.443909 1434.399658,472.978485 1437.049438,474.726135 
	C1442.082275,478.045624 1446.353638,482.222137 1447.345581,488.756256 
	C1447.483765,489.666565 1449.111816,490.350677 1450.762329,491.738007 
	C1450.762329,477.150330 1450.762329,463.724274 1450.762329,449.843872 
	C1447.761963,450.425415 1444.579346,449.984924 1445.194458,454.687805 
	C1445.358765,455.945160 1444.751831,457.727203 1443.854736,458.623199 
	C1440.648804,461.824860 1437.358521,465.009186 1433.728271,467.698059 
	C1430.703003,469.938843 1427.024902,467.754120 1427.008545,463.958191 
	C1426.958008,452.297424 1426.935791,440.635437 1427.084106,428.976227 
	C1427.104858,427.332764 1427.811035,424.543488 1428.760376,424.276337 
	C1431.995728,423.365906 1435.658936,422.486511 1438.840332,423.141541 
	C1450.082520,425.456146 1457.687622,432.187408 1460.862671,443.463898 
	C1461.681274,446.371796 1462.217285,449.376404 1463.271729,452.191071 
	C1463.616699,453.112061 1465.191284,453.572418 1466.509277,454.446075 
	C1466.509277,442.278412 1466.509277,431.251007 1466.509277,420.188416 
	C1440.348633,420.188416 1414.249268,420.188416 1388.149780,420.188416 
	C1387.946655,420.681274 1387.743652,421.174133 1387.540527,421.666992 
	C1389.233643,422.446716 1391.054688,423.035004 1392.585815,424.057343 
	C1394.287109,425.193237 1396.872681,426.575684 1397.072144,428.110870 
	C1397.829834,433.941772 1397.968384,439.876984 1397.995361,445.774719 
	C1398.085815,465.598083 1398.044678,485.422119 1398.021606,505.245850 
	C1398.010498,514.859802 1397.966187,514.828064 1389.023804,518.181152 
	C1388.425659,518.405457 1388.208862,519.646851 1387.510010,521.009277 
	C1397.912109,521.009277 1407.706055,521.009277 1418.500000,521.009277 
M1736.009766,506.132599 
	C1736.009766,498.884369 1736.009766,491.636139 1736.009766,483.889130 
	C1734.418335,484.329376 1732.678467,484.810669 1731.200562,485.219513 
	C1731.587891,487.308228 1732.388428,488.867188 1732.014648,490.057526 
	C1729.554077,497.895508 1726.813354,505.361389 1720.518555,511.476959 
	C1715.326782,516.520813 1709.446777,517.831177 1703.070190,517.964172 
	C1694.569824,518.141541 1694.008545,517.234985 1693.991699,508.739624 
	C1693.976074,500.910248 1693.987427,493.080841 1693.987061,485.251434 
	C1693.986938,480.842407 1693.987061,476.433350 1693.987061,471.986908 
	C1704.622192,472.837250 1712.175293,479.124512 1714.423584,488.253174 
	C1714.692993,489.346924 1716.073853,490.166901 1717.807861,492.063416 
	C1717.807861,476.886597 1717.807861,463.597565 1717.807861,450.114594 
	C1714.485229,450.077240 1711.953247,450.035065 1712.170410,454.669128 
	C1712.431519,460.238495 1704.277588,468.311523 1698.790283,468.282166 
	C1696.446045,468.269592 1693.846313,468.202393 1693.914062,464.311005 
	C1694.122437,452.320587 1693.940918,440.323700 1694.089722,428.331543 
	C1694.107666,426.883942 1694.968140,424.418457 1695.874756,424.194824 
	C1699.154297,423.386047 1702.807617,422.465698 1705.981812,423.151550 
	C1716.959595,425.523621 1724.545654,432.048767 1727.680542,443.157654 
	C1728.499878,446.060760 1729.128784,449.032410 1730.180420,451.847290 
	C1730.569458,452.888702 1731.922119,453.570099 1733.509033,455.039429 
	C1733.509033,442.453400 1733.509033,431.288483 1733.509033,420.258728 
	C1707.272461,420.258728 1681.198486,420.258728 1655.124634,420.258728 
	C1654.920410,420.766327 1654.716187,421.273956 1654.512085,421.781555 
	C1656.262329,422.522888 1658.126953,423.077087 1659.731079,424.057495 
	C1661.378906,425.064697 1663.373657,426.206207 1664.122192,427.802185 
	C1665.024658,429.726349 1664.986816,432.190460 1664.991333,434.421570 
	C1665.040771,458.742523 1665.158936,483.064911 1664.938477,507.383972 
	C1664.863892,515.626709 1664.438354,515.584656 1656.378174,518.143433 
	C1655.666504,518.369385 1655.251587,519.529846 1654.263306,520.828613 
	C1682.342407,520.828613 1709.458496,520.828613 1737.453125,520.828613 
	C1736.966797,516.152649 1736.494019,511.606689 1736.009766,506.132599 
M335.529053,491.967438 
	C341.940002,499.012634 348.507385,505.923431 354.711273,513.146484 
	C359.480927,518.699646 364.406555,523.198181 372.907501,520.346985 
	C372.907501,519.324402 372.906158,518.036987 372.907745,516.749573 
	C372.940674,489.758453 372.936096,462.767151 373.036835,435.776306 
	C373.058868,429.874573 374.496643,424.631073 381.257324,422.950195 
	C382.382507,422.670471 383.550079,422.561310 384.698059,422.373322 
	C384.053223,421.690369 383.408386,421.007446 382.763550,420.324493 
	C373.588165,420.324493 364.412750,420.324493 355.237366,420.324493 
	C355.643402,421.946991 356.443512,422.757782 357.361115,422.925354 
	C366.979065,424.681519 369.301178,431.467010 369.337463,439.949951 
	C369.391632,452.610718 369.516327,465.271210 369.573853,477.931946 
	C369.577789,478.802032 369.272766,479.673492 369.046600,480.894226 
	C368.020142,480.130310 367.279175,479.734222 366.736938,479.152832 
	C349.284973,460.441650 331.861572,441.703796 314.394135,423.007111 
	C313.313019,421.849915 311.934479,420.174408 310.649658,420.133240 
	C302.463837,419.870880 294.265533,419.999695 285.019379,419.999695 
	C286.255554,421.562317 286.595306,422.459747 287.158264,422.633301 
	C295.724457,425.274231 296.586670,426.303131 296.647980,435.117157 
	C296.711670,444.280487 296.709290,453.444824 296.655334,462.608246 
	C296.573914,476.433624 296.614075,490.264160 296.210785,504.081085 
	C296.039703,509.943329 294.692627,515.607971 287.843933,517.741272 
	C286.985138,518.008728 286.486023,519.430969 285.464325,520.792358 
	C295.633484,520.792358 304.747803,520.792358 315.458832,520.792358 
	C313.600006,519.281494 312.882019,518.209900 312.011047,518.066284 
	C304.270844,516.790283 300.094360,513.592407 300.021790,502.374634 
	C299.939880,489.712524 299.967468,477.049683 299.949829,464.387177 
	C299.945099,460.995911 299.949097,457.604645 299.949097,452.782837 
	C312.318268,466.419159 323.674622,478.938934 335.529053,491.967438 
M1535.460571,520.005859 
	C1538.628662,518.780212 1541.953857,517.852112 1544.937012,516.276367 
	C1556.455688,510.192139 1560.851440,498.727234 1557.098999,486.124939 
	C1554.352539,476.901459 1547.286499,471.536743 1540.165405,466.163147 
	C1531.742554,459.807312 1523.002686,453.847443 1514.849487,447.167694 
	C1510.339844,443.473083 1509.424194,435.394135 1511.676147,430.219940 
	C1514.150635,424.534668 1518.795898,423.407654 1524.333374,423.997711 
	C1525.156494,424.085419 1526.014282,424.112122 1526.827515,423.984772 
	C1532.760620,423.055695 1536.949097,426.811096 1539.984741,430.545441 
	C1545.585571,437.435699 1548.948853,445.681946 1549.584106,454.639008 
	C1550.765137,454.639008 1551.699707,454.639008 1553.164917,454.639008 
	C1553.164917,443.061646 1553.164917,431.668213 1553.164917,420.274811 
	C1552.862671,420.009369 1552.560425,419.743958 1552.258301,419.478516 
	C1551.290039,420.720398 1549.947388,421.824677 1549.429932,423.232300 
	C1548.283936,426.349762 1546.484497,426.899963 1543.720215,425.440308 
	C1542.415161,424.751221 1541.121704,424.018555 1539.758545,423.464691 
	C1523.484131,416.852386 1507.629639,416.545105 1492.716064,427.062714 
	C1490.000488,428.977905 1487.690186,431.547546 1485.482422,434.068573 
	C1484.412476,435.290375 1483.427368,437.097900 1483.425171,438.641663 
	C1483.419800,442.366180 1483.886230,446.109833 1484.408081,449.811066 
	C1484.865723,453.055542 1484.584717,457.285248 1486.502319,459.277893 
	C1492.314453,465.317932 1498.951660,470.584167 1505.424683,475.962616 
	C1512.198120,481.590637 1519.970093,486.257812 1525.817627,492.696472 
	C1532.696411,500.270935 1532.133301,512.062622 1520.573486,516.590576 
	C1517.373779,517.843933 1513.310303,516.774475 1509.660278,517.022644 
	C1503.580322,517.436096 1498.957520,514.787537 1495.968994,509.873383 
	C1493.486938,505.792297 1491.593750,501.271729 1490.034546,496.741150 
	C1489.095825,494.013153 1489.756226,490.740601 1488.846313,487.995117 
	C1488.029419,485.530609 1488.412598,481.731049 1484.695435,480.961548 
	C1483.908447,485.979736 1483.206055,490.458374 1482.503662,494.937042 
	C1482.338379,496.300995 1482.913574,497.954193 1482.945190,499.617767 
	C1483.062866,505.777771 1482.912354,511.943848 1483.097656,518.100586 
	C1483.127197,519.082764 1484.296265,520.091125 1485.107666,520.922424 
	C1485.226196,521.043762 1486.798096,520.293396 1486.844360,519.856201 
	C1487.546265,513.215210 1491.618408,515.963318 1494.604248,517.284973 
	C1507.648682,523.059021 1520.989136,523.397034 1535.460571,520.005859 
M1611.476318,455.043091 
	C1608.612183,452.816956 1605.524414,450.822968 1602.926392,448.320526 
	C1595.543823,441.209442 1596.047852,429.151794 1603.909912,424.979645 
	C1609.758911,421.875763 1615.897217,422.794006 1621.256226,425.970856 
	C1631.917480,432.290894 1635.417480,442.777924 1636.554077,456.070190 
	C1638.184692,454.398132 1639.872070,453.477081 1639.888550,452.527008 
	C1640.075806,441.754669 1640.007446,430.977844 1640.007446,419.690765 
	C1639.204224,420.343414 1637.844971,420.910492 1637.412598,421.887787 
	C1634.862427,427.650208 1634.793335,427.918701 1629.562988,424.898712 
	C1616.427124,417.313934 1602.744507,417.560059 1588.861816,421.908020 
	C1572.495972,427.033752 1566.609375,443.923370 1574.371948,458.368591 
	C1579.189453,467.333588 1587.901733,472.254669 1595.840820,477.937134 
	C1602.483032,482.691284 1610.061523,486.488251 1614.321411,493.887543 
	C1618.362549,500.906616 1618.774780,507.154907 1614.201904,512.229065 
	C1606.642212,520.617676 1591.331787,519.857300 1584.187622,511.106140 
	C1577.985474,503.508789 1575.908569,494.484375 1575.000488,485.055054 
	C1574.645630,481.369629 1574.760986,481.358521 1570.723511,481.587769 
	C1570.723511,494.562714 1570.723511,507.584900 1570.723511,521.402100 
	C1571.810059,520.753357 1573.675903,520.279175 1573.884766,519.407776 
	C1574.999878,514.755798 1577.790283,515.510010 1580.833862,516.929565 
	C1594.389526,523.252014 1608.383545,523.247437 1622.644775,519.998474 
	C1647.042480,514.440369 1652.667236,490.017242 1637.989380,475.748871 
	C1630.168579,468.146423 1620.712158,462.226532 1611.476318,455.043091 
M905.735596,460.129883 
	C904.684448,462.209534 903.633301,464.289185 902.135803,467.251984 
	C895.891052,455.216949 890.169189,444.241486 884.496460,433.240692 
	C879.886902,424.301544 880.153564,423.898346 890.151123,422.888794 
	C891.195862,422.783295 892.157410,421.854462 893.157593,421.307617 
	C892.947449,420.922943 892.737244,420.538239 892.527100,420.153564 
	C875.419678,420.153564 858.312256,420.153564 839.972107,420.153564 
	C841.445496,421.764404 842.222290,422.711517 843.100952,423.552216 
	C844.546936,424.935638 846.539612,425.980621 847.467468,427.635986 
	C855.349365,441.698120 863.075745,455.848022 870.770142,470.014282 
	C872.831665,473.809723 875.938354,477.641663 876.273743,481.648651 
	C877.048157,490.900848 876.627014,500.278534 876.272217,509.589386 
	C876.088928,514.398987 873.909180,518.043762 868.206726,518.145508 
	C867.496643,518.158142 866.808044,519.375916 865.365051,520.738037 
	C882.767151,520.738037 898.827637,520.738037 914.888184,520.738037 
	C914.348755,519.101562 913.405518,518.142883 912.405457,518.079407 
	C907.973389,517.797974 905.826782,515.541321 905.718628,511.166351 
	C905.611816,506.843506 905.807678,502.478821 905.275452,498.206665 
	C902.629700,476.970551 907.828369,457.652832 919.479370,439.996735 
	C923.341675,434.143768 927.987793,428.808014 932.275024,423.235413 
	C932.873047,422.458130 933.468262,421.678711 934.479980,420.358459 
	C923.764709,420.358459 913.963074,420.358459 904.161438,420.358459 
	C904.733521,422.081909 905.678162,422.910004 906.778564,423.311890 
	C914.744568,426.221344 917.046509,430.053589 914.469177,437.963409 
	C912.088501,445.269867 908.993774,452.343719 905.735596,460.129883 
M1334.848145,419.185944 
	C1332.888062,419.471100 1330.912720,419.677521 1328.970337,420.054077 
	C1315.410767,422.682922 1303.774658,428.207886 1296.013184,440.456848 
	C1284.590454,458.483398 1283.921387,477.288757 1292.292603,496.282654 
	C1299.374634,512.351685 1313.724609,519.438965 1330.104492,521.778259 
	C1343.199097,523.648438 1355.949097,521.462769 1366.856567,512.763672 
	C1369.636597,510.546631 1371.764160,511.699158 1372.372192,515.279663 
	C1372.611084,516.685791 1372.628296,518.247620 1373.299561,519.422424 
	C1373.779053,520.261719 1375.180298,520.574280 1376.143555,521.107117 
	C1376.143555,508.056732 1376.143555,495.781647 1376.143555,483.506531 
	C1375.655762,483.317047 1375.167969,483.127533 1374.680176,482.938049 
	C1374.012817,483.990448 1372.990967,484.964996 1372.739868,486.108795 
	C1371.671265,490.975433 1371.218750,496.005737 1369.825317,500.766724 
	C1367.048462,510.253967 1357.238770,517.572266 1347.514160,517.967529 
	C1337.046265,518.393005 1329.255737,513.449524 1325.433105,502.761414 
	C1323.102905,496.245758 1321.396118,489.340515 1320.610229,482.472839 
	C1318.832764,466.939331 1319.692627,451.537872 1325.943115,436.874878 
	C1328.682617,430.448456 1333.044189,425.714661 1340.077637,423.889008 
	C1352.512939,420.661224 1365.874268,427.814789 1369.900635,440.197998 
	C1371.227783,444.280212 1371.641479,448.652191 1372.678467,452.840759 
	C1372.970703,454.020905 1373.991821,455.020538 1374.678589,456.102997 
	C1375.163696,455.921722 1375.648804,455.740448 1376.133911,455.559174 
	C1376.133911,443.805786 1376.133911,432.052429 1376.133911,420.299042 
	C1375.828369,420.036194 1375.522827,419.773315 1375.217285,419.510437 
	C1374.151001,421.030304 1372.651367,422.409363 1372.103149,424.097443 
	C1370.674438,428.496185 1369.082397,429.414246 1365.326294,426.737671 
	C1356.410889,420.384552 1346.478882,418.344604 1334.848145,419.185944 
M839.093811,503.365845 
	C838.151123,504.517212 837.186035,505.651123 836.269226,506.822754 
	C830.359985,514.374878 823.337524,519.789795 813.054871,517.875488 
	C811.410400,517.569336 809.524170,515.695801 808.798035,514.076721 
	C807.967163,512.223999 808.163696,509.846466 808.160339,507.696625 
	C808.124390,484.884979 808.128357,462.073242 808.148376,439.261536 
	C808.150940,436.267883 808.217529,433.268799 808.407349,430.281982 
	C808.722534,425.322693 811.318420,422.847626 816.422607,422.916626 
	C817.612976,422.932739 818.815674,422.031982 820.012695,421.553070 
	C819.826660,421.129547 819.640686,420.705994 819.454712,420.282471 
	C802.730957,420.282471 786.007141,420.282471 767.863831,420.282471 
	C769.500977,421.723328 770.094299,422.618011 770.900696,422.897278 
	C778.633789,425.575317 779.133301,426.092346 779.194824,434.073425 
	C779.278259,444.895844 779.230896,455.719360 779.228638,466.542389 
	C779.225830,480.196045 779.278992,493.850220 779.176392,507.503174 
	C779.119202,515.120972 778.136047,516.153625 770.835327,518.123962 
	C770.047302,518.336609 769.475159,519.349121 768.105286,520.656128 
	C796.609680,520.656128 823.926697,520.656128 850.948853,520.656128 
	C850.948853,508.009247 850.948853,495.711151 850.948853,483.400269 
	C846.990479,481.897552 847.038635,485.218750 846.161621,487.089996 
	C843.752869,492.229614 841.500977,497.442780 839.093811,503.365845 
M429.135010,468.500061 
	C429.147949,456.507019 429.037689,444.512146 429.218872,432.521637 
	C429.332245,425.018951 430.138397,424.364868 437.250488,422.879089 
	C438.026245,422.717041 438.591766,421.548737 439.863922,420.202637 
	C422.533295,420.202637 406.424530,420.202637 390.315796,420.202637 
	C390.608795,421.719818 391.369598,422.789978 392.233582,422.881073 
	C398.386749,423.529694 400.107666,427.576324 400.178406,432.916107 
	C400.251190,438.412048 400.230011,443.909363 400.230865,449.406097 
	C400.233826,468.395203 400.264282,487.384369 400.210388,506.373352 
	C400.185547,515.132874 399.713165,515.608582 391.477264,518.187134 
	C390.819122,518.393250 390.473358,519.597168 389.686279,520.783813 
	C406.674561,520.783813 422.779724,520.783813 438.884888,520.783813 
	C439.025940,520.367004 439.166992,519.950256 439.308014,519.533447 
	C438.199860,519.024597 437.100250,518.105896 435.981903,518.082581 
	C432.424591,518.008118 430.374237,516.334900 429.843201,512.915955 
	C429.461700,510.459778 429.181427,507.960876 429.167236,505.479248 
	C429.098694,493.486511 429.135559,481.493195 429.135010,468.500061 
M267.979950,468.500000 
	C267.987030,456.341736 267.975281,444.183441 268.008575,432.025269 
	C268.027588,425.077515 268.801025,424.238647 275.445465,422.919830 
	C276.478790,422.714691 277.377747,421.832611 278.338837,421.263580 
	C278.184723,420.919159 278.030640,420.574707 277.876526,420.230286 
	C261.635620,420.230286 245.394714,420.230286 229.153793,420.230286 
	C228.944412,420.713623 228.735016,421.196960 228.525635,421.680298 
	C230.236053,422.453247 232.079987,423.025848 233.621094,424.052856 
	C235.320892,425.185608 237.891403,426.592194 238.082886,428.128723 
	C238.830582,434.128204 238.975220,440.225403 239.003189,446.287842 
	C239.094589,466.107025 239.065826,485.926971 239.022614,505.746490 
	C239.002548,514.948425 238.927414,514.916626 230.047867,518.186157 
	C229.447540,518.407227 229.218674,519.637024 228.614349,520.781616 
	C245.379913,520.781616 261.630280,520.781616 279.552429,520.781616 
	C277.587769,519.280579 276.855621,518.278503 275.966858,518.111877 
	C268.582825,516.727295 268.021759,516.138733 268.006409,508.472900 
	C267.980408,495.481964 267.987030,482.490967 267.979950,468.500000 
z"/>
<path fill="#030303" opacity="1.000000" stroke="none" 
	d="
M636.255737,502.018585 
	C635.260986,498.906158 634.266296,495.793762 633.067993,492.132141 
	C632.729736,491.340668 632.540161,491.154236 632.295654,491.023651 
	C631.410583,488.382751 630.525452,485.741882 629.608704,483.006561 
	C620.993103,483.006561 612.544617,482.893524 604.105347,483.119904 
	C602.729248,483.156799 600.603088,484.404388 600.171814,485.584961 
	C597.943970,491.683411 595.894592,497.875122 594.276306,504.161285 
	C592.099792,512.615967 596.275452,517.700745 605.704529,518.303650 
	C606.358704,518.760254 606.557068,518.902527 606.796509,518.987549 
	C606.063049,519.660339 605.331787,520.918335 604.595764,520.921143 
	C578.511230,521.022278 552.426208,521.005859 524.898376,521.005859 
	C526.410950,519.448425 526.979492,518.319092 527.772278,518.130066 
	C536.589172,516.028320 537.472168,515.167908 537.507874,505.975403 
	C537.595764,483.362579 537.536743,460.749115 537.681946,437.393646 
	C537.796448,435.999146 537.765747,435.346954 537.735107,434.694733 
	C537.494568,434.670715 537.253967,434.646698 537.013428,434.622650 
	C536.697083,435.429413 536.380798,436.236145 536.064453,437.042877 
	C527.043945,459.979767 518.018860,482.914917 509.007080,505.855255 
	C507.452759,509.811920 506.024872,513.819885 504.391418,517.742859 
	C503.840820,519.065186 502.834747,520.197937 501.275452,522.580872 
	C487.715881,491.591156 474.752960,461.964935 461.790009,432.338715 
	C461.509491,432.332092 461.229004,432.325470 460.948486,432.318848 
	C460.948486,433.658417 460.947449,434.997986 460.948608,436.337555 
	C460.967773,458.491913 460.977783,480.646240 461.010925,502.800598 
	C461.025146,512.325134 463.578156,515.505066 472.934753,518.047363 
	C473.843994,518.294434 474.567780,519.223999 474.866821,520.761719 
	C465.638000,520.761719 456.409180,520.761719 446.235992,520.761719 
	C447.216309,519.459717 447.641357,518.252258 448.362274,518.037354 
	C455.396149,515.940674 457.029633,510.221985 457.215485,504.108185 
	C457.620087,490.794678 457.580566,477.466766 457.655609,464.144409 
	C457.710968,454.316833 457.731873,444.487915 457.634796,434.660919 
	C457.554504,426.532959 456.484863,425.301788 448.642273,422.885590 
	C447.861237,422.644989 447.292847,421.714172 445.728027,420.282104 
	C460.849396,420.282104 474.591888,420.282104 488.736755,420.282104 
	C497.330994,439.670258 506.042755,459.323456 515.278992,480.159851 
	C518.530762,471.956970 521.399231,464.989227 524.062012,457.943726 
	C528.527161,446.129120 532.808899,434.244812 537.339355,422.455811 
	C537.748596,421.390808 539.395142,420.117981 540.483704,420.102448 
	C552.278931,419.933472 564.077515,419.996857 575.875122,419.996857 
	C576.030518,420.477448 576.185913,420.958038 576.341309,421.438629 
	C575.240051,421.959229 574.176758,422.807770 573.030579,422.940521 
	C569.203918,423.383728 566.873535,425.110443 566.782532,429.190887 
	C566.634155,435.845978 566.375732,442.500641 566.353455,449.156128 
	C566.293274,467.146057 566.330200,485.136292 566.337158,503.126404 
	C566.337830,504.958038 566.412170,506.789520 566.424072,508.621307 
	C566.490662,518.906067 572.049133,518.965942 579.692749,517.122681 
	C580.569336,516.773254 580.801270,516.579285 580.973389,516.313843 
	C584.018860,511.449677 587.064392,506.585480 590.347656,501.231598 
	C590.797485,500.540710 590.937012,500.297821 591.004089,500.013275 
	C592.385681,496.255096 593.767212,492.496918 595.375244,488.241394 
	C595.805603,487.549164 595.942444,487.315094 596.012207,487.041840 
	C597.401245,483.273743 598.790344,479.505676 600.397400,475.242706 
	C600.812195,474.560089 600.947144,474.335297 601.020264,474.073364 
	C601.390503,472.946014 601.760803,471.818665 602.362427,470.216797 
	C602.801758,469.543732 602.939697,469.304749 603.007507,469.025269 
	C604.392334,465.263000 605.777161,461.500763 607.384583,457.241852 
	C607.808411,456.552917 607.944397,456.322205 608.015198,456.053040 
	C608.381165,454.931702 608.747192,453.810364 609.349121,452.214539 
	C609.797363,451.537048 609.936340,451.292450 610.001892,451.006165 
	C611.382080,447.250366 612.762268,443.494568 614.370728,439.241089 
	C614.804321,438.547333 614.941528,438.311646 615.010681,438.036316 
	C616.398987,434.270325 617.787292,430.504333 619.394165,426.242310 
	C619.810974,425.556488 619.946106,425.329224 620.018066,425.064392 
	C620.387024,423.940247 620.756042,422.816101 621.345764,421.241333 
	C621.766052,420.627869 621.907104,420.424500 621.989746,420.180603 
	C637.046326,419.285614 636.858154,419.356720 642.036011,433.056274 
	C651.376648,457.769409 660.822327,482.445740 670.597229,506.988861 
	C672.205933,511.028076 675.717346,514.309509 678.673584,518.405884 
	C678.998047,519.517761 678.998291,520.164917 678.998596,520.812012 
	C663.300476,520.871826 647.602295,520.931580 631.361023,520.730530 
	C630.671997,520.263245 630.481934,520.112366 630.247803,520.017090 
	C630.697266,519.371216 631.090027,518.212769 631.604614,518.155823 
	C640.330933,517.190308 640.844543,514.814880 638.078369,506.133179 
	C637.732971,505.338623 637.545654,505.154541 637.304810,505.024933 
	C637.270264,504.569397 637.235657,504.113831 637.027222,503.131653 
	C636.714417,502.348175 636.515198,502.152679 636.255737,502.018585 
M625.918884,471.602234 
	C622.766113,463.013489 619.613342,454.424774 616.013062,444.616760 
	C611.244446,457.094818 606.963562,468.296692 602.537842,479.877563 
	C611.541809,479.877563 619.961853,479.877563 628.838196,479.877563 
	C627.886963,477.263123 626.995117,474.811981 625.918884,471.602234 
z"/>
<path fill="#040404" opacity="1.000000" stroke="none" 
	d="
M105.387039,432.178986 
	C105.542953,456.328156 105.562317,480.479370 105.927330,504.625366 
	C106.058678,513.314148 108.475777,515.732910 116.929428,518.010620 
	C118.041763,518.310303 119.050087,518.995972 120.106575,519.502930 
	C119.976036,519.889587 119.845497,520.276184 119.714958,520.662842 
	C110.543808,520.662842 101.372658,520.662842 91.333038,520.662842 
	C92.262123,519.424072 92.673744,518.343445 93.442291,517.935852 
	C98.832977,515.077209 101.260399,511.293762 101.203323,504.602295 
	C101.008011,481.702423 101.726044,458.795349 102.012581,435.889984 
	C102.046616,433.169037 102.054375,430.264557 101.150528,427.781403 
	C100.575294,426.200989 98.403046,425.063507 96.747597,424.054352 
	C95.149986,423.080475 93.296608,422.526154 91.555580,421.787567 
	C91.746445,421.191650 91.937317,420.595764 92.128189,419.999878 
	C105.222710,419.999878 118.318474,419.924286 131.409424,420.140381 
	C132.481522,420.158112 133.931961,421.978363 134.512878,423.272491 
	C141.743973,439.381256 148.834442,455.553131 155.996002,471.693268 
	C157.001175,473.958588 158.192886,476.141174 159.298233,478.362061 
	C159.770813,478.320251 160.243393,478.278473 160.715973,478.236694 
	C168.159943,458.869751 175.603912,439.502808 183.029449,420.183838 
	C195.902344,420.183838 208.357315,420.183838 220.812271,420.183838 
	C220.978882,420.589447 221.145508,420.995087 221.312119,421.400696 
	C220.238754,421.929626 219.216675,422.724243 218.083450,422.943085 
	C212.003708,424.116943 211.022095,425.126160 211.012924,431.304016 
	C210.974792,456.958099 210.955292,482.612335 210.988373,508.266418 
	C210.998886,516.422546 211.115829,516.416626 219.281403,518.114746 
	C220.065155,518.277710 220.682907,519.239014 222.395706,520.695190 
	C204.032089,520.695190 187.154022,520.695190 169.414352,520.695190 
	C170.261658,519.540955 170.675171,518.325989 171.345383,518.162415 
	C181.375748,515.713379 181.835800,515.666687 181.927017,506.274445 
	C182.153366,482.973389 182.001404,459.668701 180.874054,435.975311 
	C169.782501,464.335938 158.690933,492.696594 147.007538,522.570496 
	C145.110382,519.764465 143.565445,518.071472 142.683655,516.084167 
	C133.149475,494.597473 123.667778,473.087036 114.293404,451.530182 
	C111.554863,445.232788 109.203133,438.767181 106.409882,431.882202 
	C105.948395,431.141479 105.751137,430.897217 105.553894,430.652954 
	C105.498276,431.161621 105.442657,431.670319 105.387039,432.178986 
z"/>
<path fill="#020202" opacity="1.000000" stroke="none" 
	d="
M1122.769287,494.404541 
	C1122.010986,490.543182 1121.604248,487.045868 1120.956177,483.593903 
	C1119.329224,474.929962 1114.407837,471.432770 1105.007935,472.406403 
	C1105.007935,485.321716 1104.888794,498.279114 1105.074951,511.232117 
	C1105.137085,515.549988 1107.395386,518.254944 1112.241211,518.095764 
	C1113.241211,518.062927 1114.272949,518.995422 1115.290039,519.482971 
	C1115.165771,519.877380 1115.041382,520.271729 1114.917114,520.666138 
	C1098.719238,520.666138 1082.521240,520.666138 1065.548096,520.666138 
	C1066.267578,519.587769 1066.625732,518.357910 1067.288208,518.163330 
	C1075.389282,515.783936 1075.851074,515.827759 1075.934326,507.489319 
	C1076.177124,483.173798 1076.049072,458.854279 1075.993652,434.536499 
	C1075.988281,432.141876 1075.941284,429.556824 1075.049805,427.420654 
	C1074.439087,425.957092 1072.431641,424.938446 1070.861938,424.050812 
	C1069.213013,423.118500 1067.341797,422.579407 1065.567871,421.868469 
	C1065.736694,421.347931 1065.905640,420.827362 1066.074463,420.306824 
	C1067.150146,420.202942 1068.225952,420.009064 1069.301636,420.008636 
	C1085.291382,420.002258 1101.285889,419.795044 1117.269287,420.120880 
	C1126.634521,420.311798 1135.743164,421.776855 1144.555054,425.793518 
	C1158.101074,431.968109 1158.830933,450.641235 1150.566895,460.041656 
	C1144.273071,467.201019 1135.953369,469.580322 1126.056641,471.661255 
	C1129.768677,472.483429 1132.395752,473.146729 1135.054565,473.639954 
	C1146.191040,475.705841 1151.338501,483.049438 1153.033447,493.643524 
	C1153.835693,498.657349 1154.892212,503.636902 1156.009521,508.592316 
	C1157.433350,514.906982 1158.508789,515.484436 1165.056396,514.088196 
	C1165.510742,513.991333 1166.046265,514.099487 1166.500977,514.245972 
	C1166.765503,514.331299 1166.944214,514.682983 1168.143799,515.962463 
	C1163.608765,517.795654 1159.646973,520.370972 1155.437744,520.873169 
	C1148.934937,521.648926 1142.132446,521.809570 1135.695679,520.763489 
	C1127.617676,519.450684 1125.617065,512.220947 1124.133057,505.379822 
	C1123.385010,501.930756 1123.361816,498.324463 1122.769287,494.404541 
M1112.054077,468.972778 
	C1119.551270,468.191559 1124.229126,463.806213 1124.909424,456.619690 
	C1125.636108,448.941650 1125.171265,441.121124 1124.775635,433.385834 
	C1124.666382,431.249329 1123.221313,429.003937 1121.912964,427.143402 
	C1119.308838,423.439941 1113.711792,421.762451 1109.346924,423.198212 
	C1104.807129,424.691467 1105.097656,428.702911 1105.037964,432.319702 
	C1104.917236,439.641510 1104.984253,446.966461 1104.978271,454.290100 
	C1104.974243,459.206329 1104.977539,464.122589 1104.977539,469.022400 
	C1107.504761,469.022400 1109.334351,469.022400 1112.054077,468.972778 
z"/>
<path fill="#040404" opacity="1.000000" stroke="none" 
	d="
M1832.518799,428.380585 
	C1851.484131,439.824066 1855.081055,460.837585 1852.330933,478.817017 
	C1849.546509,497.019623 1838.627319,508.530670 1822.189209,516.187805 
	C1815.545166,519.282715 1808.825562,519.553284 1802.055542,520.643860 
	C1798.794434,521.169067 1795.406982,520.986572 1792.076660,520.993408 
	C1777.260498,521.023743 1762.444458,521.006592 1747.628296,521.006592 
	C1747.336060,520.605835 1747.043823,520.205078 1746.751465,519.804321 
	C1747.930298,518.872803 1749.226318,517.033325 1750.267578,517.167725 
	C1754.637817,517.731689 1756.011230,515.191711 1756.680664,511.776062 
	C1757.060181,509.839386 1757.201416,507.828003 1757.204346,505.849884 
	C1757.239624,482.688141 1757.267334,459.526184 1757.181641,436.364716 
	C1757.170410,433.304047 1756.975586,430.084076 1755.973877,427.253510 
	C1755.461304,425.805176 1753.027710,424.959869 1751.362305,424.019531 
	C1749.879150,423.182159 1748.257935,422.589417 1746.697632,421.888733 
	C1746.873901,421.373505 1747.050293,420.858276 1747.226562,420.343079 
	C1748.147217,420.226532 1749.067749,420.008484 1749.988403,420.008606 
	C1766.318115,420.010712 1782.654053,419.772552 1798.975464,420.152740 
	C1810.544189,420.422241 1821.859375,422.493561 1832.518799,428.380585 
M1786.131348,504.335571 
	C1786.150146,505.667145 1786.110596,507.002502 1786.197388,508.329651 
	C1786.711304,516.192566 1788.811768,518.107788 1796.819092,518.074219 
	C1808.579224,518.024902 1816.069458,511.999329 1819.914429,499.215118 
	C1823.511963,487.254089 1824.020386,474.913391 1823.030884,462.617584 
	C1822.383667,454.575989 1821.013428,446.455994 1818.774536,438.716125 
	C1816.366089,430.390533 1810.417725,424.855835 1801.524414,423.228729 
	C1789.786987,421.081268 1786.158081,424.074066 1786.141113,435.949463 
	C1786.109009,458.424744 1786.131226,480.900116 1786.131348,504.335571 
z"/>
<path fill="#040404" opacity="1.000000" stroke="none" 
	d="
M1198.719482,423.740479 
	C1217.058716,417.101166 1234.907593,416.929901 1252.225952,425.763916 
	C1266.313721,432.950043 1273.718628,444.794403 1276.110474,460.367310 
	C1278.115479,473.420380 1276.327515,485.646149 1269.878540,497.035492 
	C1262.083374,510.802460 1249.795898,518.291382 1234.419434,520.994934 
	C1224.168213,522.797424 1213.962280,522.456909 1203.931274,519.673035 
	C1186.894531,514.944885 1175.992554,504.073090 1171.275757,486.917908 
	C1166.486450,469.498688 1169.339355,453.446503 1179.520630,438.684631 
	C1184.234009,431.850769 1190.654053,427.004456 1198.719482,423.740479 
M1210.983154,512.498657 
	C1220.526123,522.181641 1230.986206,521.214600 1238.340210,509.848236 
	C1239.859985,507.499146 1241.341309,504.947479 1242.039917,502.279572 
	C1243.802368,495.547943 1245.789795,488.763306 1246.461304,481.880280 
	C1248.044800,465.648346 1247.399536,449.508392 1239.679199,434.603271 
	C1236.138550,427.767578 1231.312500,421.871124 1222.580933,421.985443 
	C1213.802002,422.100403 1209.470703,428.261658 1206.010010,435.189728 
	C1204.756226,437.699493 1203.786377,440.390442 1203.006958,443.091125 
	C1199.111328,456.588440 1198.784424,470.400238 1200.332031,484.205078 
	C1201.449585,494.173401 1204.083374,503.817688 1210.983154,512.498657 
z"/>
<path fill="#020202" opacity="1.000000" stroke="none" 
	d="
M992.000061,419.995728 
	C1005.293945,420.329834 1018.140747,420.064209 1030.865234,421.186188 
	C1041.203735,422.097809 1050.887085,425.833954 1056.850952,435.242615 
	C1064.495728,447.303253 1059.955811,464.252808 1047.321411,472.856750 
	C1039.316895,478.307770 1030.293457,480.012817 1020.954224,480.691101 
	C1017.318909,480.955139 1013.648438,480.734314 1009.985840,480.734314 
	C1009.985840,491.287384 1009.729431,501.401001 1010.102966,511.491272 
	C1010.269226,515.984131 1013.821655,517.802063 1020.067810,518.049255 
	C1021.765320,518.116516 1023.438110,518.809082 1025.122192,519.214661 
	C1025.011108,519.712708 1024.899902,520.210815 1024.788818,520.708862 
	C1006.722717,520.708862 988.656677,520.708862 970.590637,520.708862 
	C970.434570,520.359497 970.278564,520.010193 970.122498,519.660828 
	C970.973022,519.121521 971.811523,518.138245 972.676025,518.114807 
	C978.304932,517.962036 980.070374,514.334595 980.387878,509.600128 
	C980.666077,505.450775 980.613037,501.275787 980.617065,497.112030 
	C980.636169,477.115601 980.636475,457.119110 980.609070,437.122742 
	C980.605896,434.795074 980.634094,432.422699 980.215759,430.150574 
	C979.576660,426.679016 977.999084,423.925537 973.924988,423.368958 
	C972.594116,423.187134 971.384277,422.119568 970.119080,421.457062 
	C970.280823,420.969940 970.442566,420.482849 970.604309,419.995728 
	C977.569580,419.995728 984.534851,419.995728 992.000061,419.995728 
M1009.396545,475.125183 
	C1010.137024,476.086029 1010.757141,477.745453 1011.637024,477.897034 
	C1018.591125,479.095245 1025.287964,475.583649 1027.669922,468.950562 
	C1032.189453,456.364441 1032.057373,443.511749 1028.071167,430.835327 
	C1026.101929,424.573181 1021.009583,421.905731 1014.832520,423.024323 
	C1008.692505,424.136169 1009.617676,429.301605 1009.539001,433.324310 
	C1009.272949,446.941528 1009.411865,460.566681 1009.396545,475.125183 
z"/>
<path fill="#050505" opacity="1.000000" stroke="none" 
	d="
M1418.000000,521.009277 
	C1407.706055,521.009277 1397.912109,521.009277 1387.510010,521.009277 
	C1388.208862,519.646851 1388.425659,518.405457 1389.023804,518.181152 
	C1397.966187,514.828064 1398.010498,514.859802 1398.021606,505.245850 
	C1398.044678,485.422119 1398.085815,465.598083 1397.995361,445.774719 
	C1397.968384,439.876984 1397.829834,433.941772 1397.072144,428.110870 
	C1396.872681,426.575684 1394.287109,425.193237 1392.585815,424.057343 
	C1391.054688,423.035004 1389.233643,422.446716 1387.540527,421.666992 
	C1387.743652,421.174133 1387.946655,420.681274 1388.149780,420.188416 
	C1414.249268,420.188416 1440.348633,420.188416 1466.509277,420.188416 
	C1466.509277,431.251007 1466.509277,442.278412 1466.509277,454.446075 
	C1465.191284,453.572418 1463.616699,453.112061 1463.271729,452.191071 
	C1462.217285,449.376404 1461.681274,446.371796 1460.862671,443.463898 
	C1457.687622,432.187408 1450.082520,425.456146 1438.840332,423.141541 
	C1435.658936,422.486511 1431.995728,423.365906 1428.760376,424.276337 
	C1427.811035,424.543488 1427.104858,427.332764 1427.084106,428.976227 
	C1426.935791,440.635437 1426.958008,452.297424 1427.008545,463.958191 
	C1427.024902,467.754120 1430.703003,469.938843 1433.728271,467.698059 
	C1437.358521,465.009186 1440.648804,461.824860 1443.854736,458.623199 
	C1444.751831,457.727203 1445.358765,455.945160 1445.194458,454.687805 
	C1444.579346,449.984924 1447.761963,450.425415 1450.762329,449.843872 
	C1450.762329,463.724274 1450.762329,477.150330 1450.762329,491.738007 
	C1449.111816,490.350677 1447.483765,489.666565 1447.345581,488.756256 
	C1446.353638,482.222137 1442.082275,478.045624 1437.049438,474.726135 
	C1434.399658,472.978485 1430.949707,472.443909 1426.987427,471.055389 
	C1426.987427,476.094116 1426.987305,480.167450 1426.987427,484.240784 
	C1426.987671,492.403503 1426.976318,500.566284 1426.991943,508.728973 
	C1427.008301,517.227173 1427.571045,518.138428 1436.060913,517.962952 
	C1442.436401,517.831177 1448.316406,516.525024 1453.511597,511.480927 
	C1459.809692,505.366028 1462.543457,497.897766 1465.012451,490.063934 
	C1465.387329,488.874451 1464.587524,487.314758 1464.200806,485.220703 
	C1465.672607,484.812164 1467.410156,484.329834 1469.508545,483.747375 
	C1469.508545,496.397552 1469.508545,508.425140 1469.508545,521.009277 
	C1452.687378,521.009277 1435.593750,521.009277 1418.000000,521.009277 
z"/>
<path fill="#050505" opacity="1.000000" stroke="none" 
	d="
M1736.015503,506.596680 
	C1736.494019,511.606689 1736.966797,516.152649 1737.453125,520.828613 
	C1709.458496,520.828613 1682.342407,520.828613 1654.263306,520.828613 
	C1655.251587,519.529846 1655.666504,518.369385 1656.378174,518.143433 
	C1664.438354,515.584656 1664.863892,515.626709 1664.938477,507.383972 
	C1665.158936,483.064911 1665.040771,458.742523 1664.991333,434.421570 
	C1664.986816,432.190460 1665.024658,429.726349 1664.122192,427.802185 
	C1663.373657,426.206207 1661.378906,425.064697 1659.731079,424.057495 
	C1658.126953,423.077087 1656.262329,422.522888 1654.512085,421.781555 
	C1654.716187,421.273956 1654.920410,420.766327 1655.124634,420.258728 
	C1681.198486,420.258728 1707.272461,420.258728 1733.509033,420.258728 
	C1733.509033,431.288483 1733.509033,442.453400 1733.509033,455.039429 
	C1731.922119,453.570099 1730.569458,452.888702 1730.180420,451.847290 
	C1729.128784,449.032410 1728.499878,446.060760 1727.680542,443.157654 
	C1724.545654,432.048767 1716.959595,425.523621 1705.981812,423.151550 
	C1702.807617,422.465698 1699.154297,423.386047 1695.874756,424.194824 
	C1694.968140,424.418457 1694.107666,426.883942 1694.089722,428.331543 
	C1693.940918,440.323700 1694.122437,452.320587 1693.914062,464.311005 
	C1693.846313,468.202393 1696.446045,468.269592 1698.790283,468.282166 
	C1704.277588,468.311523 1712.431519,460.238495 1712.170410,454.669128 
	C1711.953247,450.035065 1714.485229,450.077240 1717.807861,450.114594 
	C1717.807861,463.597565 1717.807861,476.886597 1717.807861,492.063416 
	C1716.073853,490.166901 1714.692993,489.346924 1714.423584,488.253174 
	C1712.175293,479.124512 1704.622192,472.837250 1693.987061,471.986908 
	C1693.987061,476.433350 1693.986938,480.842407 1693.987061,485.251434 
	C1693.987427,493.080841 1693.976074,500.910248 1693.991699,508.739624 
	C1694.008545,517.234985 1694.569824,518.141541 1703.070190,517.964172 
	C1709.446777,517.831177 1715.326782,516.520813 1720.518555,511.476959 
	C1726.813354,505.361389 1729.554077,497.895508 1732.014648,490.057526 
	C1732.388428,488.867188 1731.587891,487.308228 1731.200562,485.219513 
	C1732.678467,484.810669 1734.418335,484.329376 1736.009766,483.889130 
	C1736.009766,491.636139 1736.009766,498.884369 1736.015503,506.596680 
z"/>
<path fill="#040404" opacity="1.000000" stroke="none" 
	d="
M335.280029,491.713074 
	C323.674622,478.938934 312.318268,466.419159 299.949097,452.782837 
	C299.949097,457.604645 299.945099,460.995911 299.949829,464.387177 
	C299.967468,477.049683 299.939880,489.712524 300.021790,502.374634 
	C300.094360,513.592407 304.270844,516.790283 312.011047,518.066284 
	C312.882019,518.209900 313.600006,519.281494 315.458832,520.792358 
	C304.747803,520.792358 295.633484,520.792358 285.464325,520.792358 
	C286.486023,519.430969 286.985138,518.008728 287.843933,517.741272 
	C294.692627,515.607971 296.039703,509.943329 296.210785,504.081085 
	C296.614075,490.264160 296.573914,476.433624 296.655334,462.608246 
	C296.709290,453.444824 296.711670,444.280487 296.647980,435.117157 
	C296.586670,426.303131 295.724457,425.274231 287.158264,422.633301 
	C286.595306,422.459747 286.255554,421.562317 285.019379,419.999695 
	C294.265533,419.999695 302.463837,419.870880 310.649658,420.133240 
	C311.934479,420.174408 313.313019,421.849915 314.394135,423.007111 
	C331.861572,441.703796 349.284973,460.441650 366.736938,479.152832 
	C367.279175,479.734222 368.020142,480.130310 369.046600,480.894226 
	C369.272766,479.673492 369.577789,478.802032 369.573853,477.931946 
	C369.516327,465.271210 369.391632,452.610718 369.337463,439.949951 
	C369.301178,431.467010 366.979065,424.681519 357.361115,422.925354 
	C356.443512,422.757782 355.643402,421.946991 355.237366,420.324493 
	C364.412750,420.324493 373.588165,420.324493 382.763550,420.324493 
	C383.408386,421.007446 384.053223,421.690369 384.698059,422.373322 
	C383.550079,422.561310 382.382507,422.670471 381.257324,422.950195 
	C374.496643,424.631073 373.058868,429.874573 373.036835,435.776306 
	C372.936096,462.767151 372.940674,489.758453 372.907745,516.749573 
	C372.906158,518.036987 372.907501,519.324402 372.907501,520.346985 
	C364.406555,523.198181 359.480927,518.699646 354.711273,513.146484 
	C348.507385,505.923431 341.940002,499.012634 335.280029,491.713074 
z"/>
<path fill="#050505" opacity="1.000000" stroke="none" 
	d="
M1535.040894,520.020142 
	C1520.989136,523.397034 1507.648682,523.059021 1494.604248,517.284973 
	C1491.618408,515.963318 1487.546265,513.215210 1486.844360,519.856201 
	C1486.798096,520.293396 1485.226196,521.043762 1485.107666,520.922424 
	C1484.296265,520.091125 1483.127197,519.082764 1483.097656,518.100586 
	C1482.912354,511.943848 1483.062866,505.777771 1482.945190,499.617767 
	C1482.913574,497.954193 1482.338379,496.300995 1482.503662,494.937042 
	C1483.206055,490.458374 1483.908447,485.979736 1484.695435,480.961548 
	C1488.412598,481.731049 1488.029419,485.530609 1488.846313,487.995117 
	C1489.756226,490.740601 1489.095825,494.013153 1490.034546,496.741150 
	C1491.593750,501.271729 1493.486938,505.792297 1495.968994,509.873383 
	C1498.957520,514.787537 1503.580322,517.436096 1509.660278,517.022644 
	C1513.310303,516.774475 1517.373779,517.843933 1520.573486,516.590576 
	C1532.133301,512.062622 1532.696411,500.270935 1525.817627,492.696472 
	C1519.970093,486.257812 1512.198120,481.590637 1505.424683,475.962616 
	C1498.951660,470.584167 1492.314453,465.317932 1486.502319,459.277893 
	C1484.584717,457.285248 1484.865723,453.055542 1484.408081,449.811066 
	C1483.886230,446.109833 1483.419800,442.366180 1483.425171,438.641663 
	C1483.427368,437.097900 1484.412476,435.290375 1485.482422,434.068573 
	C1487.690186,431.547546 1490.000488,428.977905 1492.716064,427.062714 
	C1507.629639,416.545105 1523.484131,416.852386 1539.758545,423.464691 
	C1541.121704,424.018555 1542.415161,424.751221 1543.720215,425.440308 
	C1546.484497,426.899963 1548.283936,426.349762 1549.429932,423.232300 
	C1549.947388,421.824677 1551.290039,420.720398 1552.258301,419.478516 
	C1552.560425,419.743958 1552.862671,420.009369 1553.164917,420.274811 
	C1553.164917,431.668213 1553.164917,443.061646 1553.164917,454.639008 
	C1551.699707,454.639008 1550.765137,454.639008 1549.584106,454.639008 
	C1548.948853,445.681946 1545.585571,437.435699 1539.984741,430.545441 
	C1536.949097,426.811096 1532.760620,423.055695 1526.827515,423.984772 
	C1526.014282,424.112122 1525.156494,424.085419 1524.333374,423.997711 
	C1518.795898,423.407654 1514.150635,424.534668 1511.676147,430.219940 
	C1509.424194,435.394135 1510.339844,443.473083 1514.849487,447.167694 
	C1523.002686,453.847443 1531.742554,459.807312 1540.165405,466.163147 
	C1547.286499,471.536743 1554.352539,476.901459 1557.098999,486.124939 
	C1560.851440,498.727234 1556.455688,510.192139 1544.937012,516.276367 
	C1541.953857,517.852112 1538.628662,518.780212 1535.040894,520.020142 
z"/>
<path fill="#050505" opacity="1.000000" stroke="none" 
	d="
M1611.735107,455.295166 
	C1620.712158,462.226532 1630.168579,468.146423 1637.989380,475.748871 
	C1652.667236,490.017242 1647.042480,514.440369 1622.644775,519.998474 
	C1608.383545,523.247437 1594.389526,523.252014 1580.833862,516.929565 
	C1577.790283,515.510010 1574.999878,514.755798 1573.884766,519.407776 
	C1573.675903,520.279175 1571.810059,520.753357 1570.723511,521.402100 
	C1570.723511,507.584900 1570.723511,494.562714 1570.723511,481.587769 
	C1574.760986,481.358521 1574.645630,481.369629 1575.000488,485.055054 
	C1575.908569,494.484375 1577.985474,503.508789 1584.187622,511.106140 
	C1591.331787,519.857300 1606.642212,520.617676 1614.201904,512.229065 
	C1618.774780,507.154907 1618.362549,500.906616 1614.321411,493.887543 
	C1610.061523,486.488251 1602.483032,482.691284 1595.840820,477.937134 
	C1587.901733,472.254669 1579.189453,467.333588 1574.371948,458.368591 
	C1566.609375,443.923370 1572.495972,427.033752 1588.861816,421.908020 
	C1602.744507,417.560059 1616.427124,417.313934 1629.562988,424.898712 
	C1634.793335,427.918701 1634.862427,427.650208 1637.412598,421.887787 
	C1637.844971,420.910492 1639.204224,420.343414 1640.007446,419.690765 
	C1640.007446,430.977844 1640.075806,441.754669 1639.888550,452.527008 
	C1639.872070,453.477081 1638.184692,454.398132 1636.554077,456.070190 
	C1635.417480,442.777924 1631.917480,432.290894 1621.256226,425.970856 
	C1615.897217,422.794006 1609.758911,421.875763 1603.909912,424.979645 
	C1596.047852,429.151794 1595.543823,441.209442 1602.926392,448.320526 
	C1605.524414,450.822968 1608.612183,452.816956 1611.735107,455.295166 
z"/>
<path fill="#040404" opacity="1.000000" stroke="none" 
	d="
M905.974609,459.824951 
	C908.993774,452.343719 912.088501,445.269867 914.469177,437.963409 
	C917.046509,430.053589 914.744568,426.221344 906.778564,423.311890 
	C905.678162,422.910004 904.733521,422.081909 904.161438,420.358459 
	C913.963074,420.358459 923.764709,420.358459 934.479980,420.358459 
	C933.468262,421.678711 932.873047,422.458130 932.275024,423.235413 
	C927.987793,428.808014 923.341675,434.143768 919.479370,439.996735 
	C907.828369,457.652832 902.629700,476.970551 905.275452,498.206665 
	C905.807678,502.478821 905.611816,506.843506 905.718628,511.166351 
	C905.826782,515.541321 907.973389,517.797974 912.405457,518.079407 
	C913.405518,518.142883 914.348755,519.101562 914.888184,520.738037 
	C898.827637,520.738037 882.767151,520.738037 865.365051,520.738037 
	C866.808044,519.375916 867.496643,518.158142 868.206726,518.145508 
	C873.909180,518.043762 876.088928,514.398987 876.272217,509.589386 
	C876.627014,500.278534 877.048157,490.900848 876.273743,481.648651 
	C875.938354,477.641663 872.831665,473.809723 870.770142,470.014282 
	C863.075745,455.848022 855.349365,441.698120 847.467468,427.635986 
	C846.539612,425.980621 844.546936,424.935638 843.100952,423.552216 
	C842.222290,422.711517 841.445496,421.764404 839.972107,420.153564 
	C858.312256,420.153564 875.419678,420.153564 892.527100,420.153564 
	C892.737244,420.538239 892.947449,420.922943 893.157593,421.307617 
	C892.157410,421.854462 891.195862,422.783295 890.151123,422.888794 
	C880.153564,423.898346 879.886902,424.301544 884.496460,433.240692 
	C890.169189,444.241486 895.891052,455.216949 902.135803,467.251984 
	C903.633301,464.289185 904.684448,462.209534 905.974609,459.824951 
z"/>
<path fill="#050505" opacity="1.000000" stroke="none" 
	d="
M1335.311523,419.153015 
	C1346.478882,418.344604 1356.410889,420.384552 1365.326294,426.737671 
	C1369.082397,429.414246 1370.674438,428.496185 1372.103149,424.097443 
	C1372.651367,422.409363 1374.151001,421.030304 1375.217285,419.510437 
	C1375.522827,419.773315 1375.828369,420.036194 1376.133911,420.299042 
	C1376.133911,432.052429 1376.133911,443.805786 1376.133911,455.559174 
	C1375.648804,455.740448 1375.163696,455.921722 1374.678589,456.102997 
	C1373.991821,455.020538 1372.970703,454.020905 1372.678467,452.840759 
	C1371.641479,448.652191 1371.227783,444.280212 1369.900635,440.197998 
	C1365.874268,427.814789 1352.512939,420.661224 1340.077637,423.889008 
	C1333.044189,425.714661 1328.682617,430.448456 1325.943115,436.874878 
	C1319.692627,451.537872 1318.832764,466.939331 1320.610229,482.472839 
	C1321.396118,489.340515 1323.102905,496.245758 1325.433105,502.761414 
	C1329.255737,513.449524 1337.046265,518.393005 1347.514160,517.967529 
	C1357.238770,517.572266 1367.048462,510.253967 1369.825317,500.766724 
	C1371.218750,496.005737 1371.671265,490.975433 1372.739868,486.108795 
	C1372.990967,484.964996 1374.012817,483.990448 1374.680176,482.938049 
	C1375.167969,483.127533 1375.655762,483.317047 1376.143555,483.506531 
	C1376.143555,495.781647 1376.143555,508.056732 1376.143555,521.107117 
	C1375.180298,520.574280 1373.779053,520.261719 1373.299561,519.422424 
	C1372.628296,518.247620 1372.611084,516.685791 1372.372192,515.279663 
	C1371.764160,511.699158 1369.636597,510.546631 1366.856567,512.763672 
	C1355.949097,521.462769 1343.199097,523.648438 1330.104492,521.778259 
	C1313.724609,519.438965 1299.374634,512.351685 1292.292603,496.282654 
	C1283.921387,477.288757 1284.590454,458.483398 1296.013184,440.456848 
	C1303.774658,428.207886 1315.410767,422.682922 1328.970337,420.054077 
	C1330.912720,419.677521 1332.888062,419.471100 1335.311523,419.153015 
z"/>
<path fill="#040404" opacity="1.000000" stroke="none" 
	d="
M679.465088,520.862366 
	C678.998291,520.164917 678.998047,519.517761 678.997925,518.547058 
	C688.542664,517.749207 690.183350,516.101746 690.206116,506.319000 
	C690.260681,482.826324 690.240967,459.333405 690.218811,435.840607 
	C690.210022,426.506622 690.086487,426.418365 681.172424,422.777832 
	C680.620422,422.552399 680.362244,421.607391 679.585632,420.407196 
	C697.052246,420.407196 713.869873,420.407196 730.687500,420.407196 
	C730.822876,420.830902 730.958313,421.254608 731.093689,421.678314 
	C729.777161,422.117432 728.460815,422.928741 727.144165,422.929199 
	C722.257446,422.930939 719.818115,425.342651 719.439209,430.073059 
	C719.306396,431.731262 719.154297,433.394592 719.153015,435.055664 
	C719.134583,459.548187 719.126282,484.040710 719.165710,508.533173 
	C719.168884,510.513733 719.135437,512.660034 719.863464,514.421692 
	C720.454163,515.851318 722.027588,517.624817 723.399292,517.855835 
	C730.478027,519.047852 736.828918,517.448853 742.243103,512.316284 
	C749.562744,505.377258 754.310852,497.018433 757.242554,487.454681 
	C757.801636,485.630402 759.231995,484.073181 760.260437,482.392792 
	C760.801514,482.644318 761.342590,482.895844 761.883667,483.147369 
	C761.883667,495.583710 761.883667,508.020050 761.883667,520.912659 
	C734.816650,520.912659 707.374146,520.912659 679.465088,520.862366 
z"/>
<path fill="#040404" opacity="1.000000" stroke="none" 
	d="
M839.140381,502.996338 
	C841.500977,497.442780 843.752869,492.229614 846.161621,487.089996 
	C847.038635,485.218750 846.990479,481.897552 850.948853,483.400269 
	C850.948853,495.711151 850.948853,508.009247 850.948853,520.656128 
	C823.926697,520.656128 796.609680,520.656128 768.105286,520.656128 
	C769.475159,519.349121 770.047302,518.336609 770.835327,518.123962 
	C778.136047,516.153625 779.119202,515.120972 779.176392,507.503174 
	C779.278992,493.850220 779.225830,480.196045 779.228638,466.542389 
	C779.230896,455.719360 779.278259,444.895844 779.194824,434.073425 
	C779.133301,426.092346 778.633789,425.575317 770.900696,422.897278 
	C770.094299,422.618011 769.500977,421.723328 767.863831,420.282471 
	C786.007141,420.282471 802.730957,420.282471 819.454712,420.282471 
	C819.640686,420.705994 819.826660,421.129547 820.012695,421.553070 
	C818.815674,422.031982 817.612976,422.932739 816.422607,422.916626 
	C811.318420,422.847626 808.722534,425.322693 808.407349,430.281982 
	C808.217529,433.268799 808.150940,436.267883 808.148376,439.261536 
	C808.128357,462.073242 808.124390,484.884979 808.160339,507.696625 
	C808.163696,509.846466 807.967163,512.223999 808.798035,514.076721 
	C809.524170,515.695801 811.410400,517.569336 813.054871,517.875488 
	C823.337524,519.789795 830.359985,514.374878 836.269226,506.822754 
	C837.186035,505.651123 838.151123,504.517212 839.140381,502.996338 
z"/>
<path fill="#030303" opacity="1.000000" stroke="none" 
	d="
M429.135010,469.000061 
	C429.135559,481.493195 429.098694,493.486511 429.167236,505.479248 
	C429.181427,507.960876 429.461700,510.459778 429.843201,512.915955 
	C430.374237,516.334900 432.424591,518.008118 435.981903,518.082581 
	C437.100250,518.105896 438.199860,519.024597 439.308014,519.533447 
	C439.166992,519.950256 439.025940,520.367004 438.884888,520.783813 
	C422.779724,520.783813 406.674561,520.783813 389.686279,520.783813 
	C390.473358,519.597168 390.819122,518.393250 391.477264,518.187134 
	C399.713165,515.608582 400.185547,515.132874 400.210388,506.373352 
	C400.264282,487.384369 400.233826,468.395203 400.230865,449.406097 
	C400.230011,443.909363 400.251190,438.412048 400.178406,432.916107 
	C400.107666,427.576324 398.386749,423.529694 392.233582,422.881073 
	C391.369598,422.789978 390.608795,421.719818 390.315796,420.202637 
	C406.424530,420.202637 422.533295,420.202637 439.863922,420.202637 
	C438.591766,421.548737 438.026245,422.717041 437.250488,422.879089 
	C430.138397,424.364868 429.332245,425.018951 429.218872,432.521637 
	C429.037689,444.512146 429.147949,456.507019 429.135010,469.000061 
z"/>
<path fill="#010101" opacity="1.000000" stroke="none" 
	d="
M267.979919,469.000000 
	C267.987030,482.490967 267.980408,495.481964 268.006409,508.472900 
	C268.021759,516.138733 268.582825,516.727295 275.966858,518.111877 
	C276.855621,518.278503 277.587769,519.280579 279.552429,520.781616 
	C261.630280,520.781616 245.379913,520.781616 228.614349,520.781616 
	C229.218674,519.637024 229.447540,518.407227 230.047867,518.186157 
	C238.927414,514.916626 239.002548,514.948425 239.022614,505.746490 
	C239.065826,485.926971 239.094589,466.107025 239.003189,446.287842 
	C238.975220,440.225403 238.830582,434.128204 238.082886,428.128723 
	C237.891403,426.592194 235.320892,425.185608 233.621094,424.052856 
	C232.079987,423.025848 230.236053,422.453247 228.525635,421.680298 
	C228.735016,421.196960 228.944412,420.713623 229.153793,420.230286 
	C245.394714,420.230286 261.635620,420.230286 277.876526,420.230286 
	C278.030640,420.574707 278.184723,420.919159 278.338837,421.263580 
	C277.377747,421.832611 276.478790,422.714691 275.445465,422.919830 
	C268.801025,424.238647 268.027588,425.077515 268.008575,432.025269 
	C267.975281,444.183441 267.987030,456.341736 267.979919,469.000000 
z"/>


<path fill="#040404" opacity="1.000000" stroke="none" 
	d="
M580.712097,516.212708 
	C580.801270,516.579285 580.569336,516.773254 580.056213,516.957642 
	C580.040161,516.716980 580.245483,516.414307 580.712097,516.212708 
z"/>
<path fill="#040404" opacity="1.000000" stroke="none" 
	d="
M606.838318,518.736084 
	C606.557068,518.902527 606.358704,518.760254 606.111694,518.398865 
	C606.307983,518.319641 606.594055,518.402161 606.838318,518.736084 
z"/>
<path fill="#040404" opacity="1.000000" stroke="none" 
	d="
M637.199707,505.276062 
	C637.545654,505.154541 637.732971,505.338623 637.940247,505.762238 
	C637.707397,505.807251 637.401001,505.667206 637.199707,505.276062 
z"/>
<path fill="#040404" opacity="1.000000" stroke="none" 
	d="
M636.165283,502.278320 
	C636.515198,502.152679 636.714417,502.348175 636.926270,502.804016 
	C636.691040,502.848022 636.382935,502.693054 636.165283,502.278320 
z"/>
<path fill="#040404" opacity="1.000000" stroke="none" 
	d="
M630.182251,520.265076 
	C630.481934,520.112366 630.671997,520.263245 630.900024,520.634277 
	C630.693726,520.703613 630.405273,520.608337 630.182251,520.265076 
z"/>
<path fill="#040404" opacity="1.000000" stroke="none" 
	d="
M590.732788,500.037415 
	C590.937012,500.297821 590.797485,500.540710 590.408203,500.859070 
	C590.307861,500.671356 590.384705,500.366425 590.732788,500.037415 
z"/>
<path fill="#040404" opacity="1.000000" stroke="none" 
	d="
M632.193115,491.276428 
	C632.540161,491.154236 632.729736,491.340668 632.937744,491.770782 
	C632.704163,491.815491 632.397400,491.672333 632.193115,491.276428 
z"/>
<path fill="#040404" opacity="1.000000" stroke="none" 
	d="
M595.741760,487.055847 
	C595.942444,487.315094 595.805603,487.549164 595.431091,487.858459 
	C595.330750,487.671875 595.401062,487.370880 595.741760,487.055847 
z"/>
<path fill="#040404" opacity="1.000000" stroke="none" 
	d="
M600.751343,474.076294 
	C600.947144,474.335297 600.812195,474.560089 600.450928,474.858887 
	C600.351746,474.673035 600.417053,474.376160 600.751343,474.076294 
z"/>
<path fill="#040404" opacity="1.000000" stroke="none" 
	d="
M602.736572,469.045288 
	C602.939697,469.304749 602.801758,469.543732 602.419739,469.858368 
	C602.319031,469.671417 602.392334,469.368347 602.736572,469.045288 
z"/>
<path fill="#040404" opacity="1.000000" stroke="none" 
	d="
M607.745117,456.063049 
	C607.944397,456.322205 607.808411,456.552917 607.438904,456.858459 
	C607.338806,456.672150 607.406921,456.372589 607.745117,456.063049 
z"/>
<path fill="#040404" opacity="1.000000" stroke="none" 
	d="
M609.730225,451.032715 
	C609.936340,451.292450 609.797363,451.537048 609.407349,451.858154 
	C609.305969,451.670624 609.382263,451.364929 609.730225,451.032715 
z"/>
<path fill="#040404" opacity="1.000000" stroke="none" 
	d="
M614.740051,438.052307 
	C614.941528,438.311646 614.804321,438.547333 614.427307,438.858398 
	C614.326843,438.671722 614.398132,438.370026 614.740051,438.052307 
z"/>
<path fill="#040404" opacity="1.000000" stroke="none" 
	d="
M619.748413,425.070282 
	C619.946106,425.329224 619.810974,425.556488 619.446777,425.858398 
	C619.346863,425.672455 619.412842,425.374298 619.748413,425.070282 
z"/>
<path fill="#040404" opacity="1.000000" stroke="none" 
	d="
M621.724731,420.129089 
	C621.907104,420.424500 621.766052,420.627869 621.403809,420.884033 
	C621.313965,420.677429 621.386841,420.377502 621.724731,420.129089 
z"/>





</svg>