<svg xmlns="http://www.w3.org/2000/svg" viewBox="90 400 1770 140" width="100%" xml:space="preserve">
<path fill="#040404" opacity="1.000000" stroke="none" d="M181.436310,535.563843 C181.436081,519.136658 181.436081,503.169434 181.436081,485.916962 C179.996674,487.809662 179.200089,488.691284 178.588699,489.686676 C172.231445,500.036804 165.918671,510.414246 159.561417,520.764343 C156.710098,525.406555 150.642899,525.367920 147.757156,520.666382 C141.577240,510.597809 135.454834,500.493927 129.304642,490.407104 C128.482147,489.058136 127.635040,487.724152 125.932816,486.598999 C125.932816,504.113190 125.932816,521.627380 125.932816,539.418762 C116.351151,539.418762 107.293671,539.418762 97.960587,539.418762 C97.960587,503.713593 97.960587,468.310913 97.960587,432.287445 C106.803192,432.287445 115.415901,432.138458 124.012093,432.448120 C125.301277,432.494568 126.827118,434.493774 127.711517,435.919586 C135.430130,448.363495 143.023865,460.884766 150.666138,473.376068 C151.515137,474.763733 152.435837,476.107483 153.744965,478.119781 C155.371902,475.536621 156.691727,473.495422 157.957977,471.421509 C165.240662,459.493591 172.400299,447.487579 179.908661,435.703674 C180.984848,434.014618 183.681931,432.517670 185.701370,432.419220 C193.477371,432.040222 201.282852,432.265503 209.423752,432.265503 C209.423752,468.137573 209.423752,503.535400 209.423752,539.703064 C200.821411,539.703064 192.226929,539.796631 183.642685,539.543152 C182.873337,539.520447 182.170349,537.250244 181.436310,535.563843 z"/>
<path fill="#030303" opacity="1.000000" stroke="none" d="M513.765686,492.779114 C507.928101,502.323547 502.303802,511.561584 496.641571,520.776367 C493.788300,525.419800 487.744080,525.362976 484.842133,520.635376 C478.661499,510.566559 472.546906,500.457214 466.387939,490.375061 C465.573944,489.042542 464.658539,487.771942 463.078857,485.408600 C463.078857,504.112946 463.078857,521.518555 463.078857,539.318726 C453.653290,539.318726 444.589783,539.318726 435.145538,539.318726 C435.145538,503.927429 435.145538,468.533051 435.145538,432.303162 C443.832245,432.303162 452.579407,432.152100 461.309387,432.471771 C462.567596,432.517853 464.013428,434.661316 464.914429,436.117554 C473.402283,449.836151 481.790649,463.616272 490.564819,477.962524 C491.599182,476.582367 492.405670,475.668396 493.033020,474.644653 C500.944763,461.734253 508.898132,448.848389 516.666321,435.851929 C518.216736,433.258087 519.900635,432.108429 523.000854,432.196930 C530.647888,432.415192 538.305420,432.268463 546.411743,432.268463 C546.411743,468.048248 546.411743,503.566376 546.411743,539.404053 C537.313660,539.404053 528.258728,539.404053 518.588867,539.404053 C518.588867,521.829956 518.588867,504.482574 518.588867,487.135193 C518.225281,487.026489 517.861755,486.917816 517.498169,486.809113 C516.319885,488.693756 515.141541,490.578400 513.765686,492.779114 z"/>
<path fill="#040404" opacity="1.000000" stroke="none" d="M278.205872,503.999878 C278.205872,480.031342 278.205872,456.562805 278.205872,432.335602 C287.449768,432.335602 296.365417,432.211243 305.268341,432.491333 C306.394257,432.526764 307.693115,434.539276 308.506470,435.881439 C317.124908,450.102936 325.657379,464.376495 334.225739,478.628357 C335.114380,480.106445 336.081451,481.537354 337.986267,482.659485 C337.986267,466.120972 337.986267,449.582489 337.986267,432.655579 C347.483063,432.655579 356.525940,432.655579 365.863281,432.655579 C365.863281,468.154266 365.863281,503.702087 365.863281,539.722595 C357.301361,539.722595 348.846100,539.896301 340.411560,539.556213 C338.961487,539.497803 337.194153,537.501465 336.260132,535.979065 C327.476440,521.662292 318.844055,507.252747 310.161346,492.874023 C309.339325,491.512756 308.471954,490.178894 306.683380,489.015289 C306.683380,505.651733 306.683380,522.288208 306.683380,539.317749 C297.020905,539.317749 287.982239,539.317749 278.205872,539.317749 C278.205872,527.680542 278.205872,516.090210 278.205872,503.999878 z"/>
<path fill="#030303" opacity="1.000000" stroke="none" d="M1109.522217,434.529724 C1126.695068,439.050873 1134.871948,447.678986 1137.082275,463.309296 C1139.825195,482.706482 1134.124512,494.576111 1116.644775,504.918182 C1124.464233,516.212891 1132.262573,527.477112 1140.736694,539.717468 C1134.192139,539.717468 1128.382202,538.983459 1122.833008,539.874146 C1112.105591,541.596008 1105.277710,537.646790 1100.863647,527.930725 C1098.959839,523.740112 1095.268677,520.359009 1093.381714,516.163818 C1090.013184,508.674530 1084.427368,507.890259 1077.127930,509.628021 C1077.127930,519.348450 1077.127930,529.116516 1077.127930,539.298950 C1067.676270,539.298950 1058.621460,539.298950 1049.165039,539.298950 C1049.165039,503.815582 1049.165039,468.292603 1049.165039,431.309265 C1069.334839,432.353302 1089.230469,433.383148 1109.522217,434.529724 z"/>
<path fill="#030303" opacity="1.000000" stroke="none" d="M1207.998535,431.231018 C1238.456055,432.409363 1257.487793,452.120331 1257.898682,482.127625 C1258.073120,494.871826 1256.058350,507.003571 1249.367554,518.032837 C1238.708984,535.602722 1218.578125,543.740540 1196.006226,539.729370 C1176.878540,536.330322 1162.168213,522.004639 1158.065186,502.582703 C1155.729736,491.527222 1155.683716,480.403259 1158.486328,469.440491 C1164.609253,445.490448 1181.673584,432.302277 1207.998535,431.231018 z"/>
<path fill="#030303" opacity="1.000000" stroke="none" d="M1759.008423,505.000000 C1759.008423,480.715149 1759.008423,456.930267 1759.008423,433.436432 C1759.584229,432.926422 1759.834961,432.512695 1760.075806,432.518433 C1775.518066,432.887512 1791.140015,431.945740 1806.360474,433.991058 C1832.192017,437.462402 1846.166870,453.802795 1847.799927,479.833252 C1848.578857,492.247223 1847.361084,504.438690 1841.429688,515.704529 C1834.816284,528.265930 1823.985596,535.862793 1810.383911,537.537415 C1793.652100,539.597351 1776.671509,539.636414 1759.008423,540.591675 C1759.008423,527.991211 1759.008423,516.745605 1759.008423,505.000000 z"/>
<path fill="#030303" opacity="1.000000" stroke="none" d="M1699.000244,432.268188 C1712.452637,432.268188 1725.404907,432.268188 1738.625977,432.268188 C1738.625977,441.387329 1738.625977,449.947937 1738.625977,458.879486 C1722.864868,458.879486 1707.268555,458.879486 1691.342163,458.879486 C1691.342163,463.627228 1691.342163,468.014130 1691.342163,472.822449 C1702.890137,472.822449 1714.485718,472.822449 1726.524902,472.822449 C1726.524902,481.265533 1726.524902,489.317993 1726.524902,497.918579 C1714.957275,497.918579 1703.235962,497.918579 1691.268555,497.918579 C1691.268555,503.049561 1691.268555,507.652924 1691.268555,512.794067 C1706.853882,512.794067 1722.577271,512.794067 1738.597656,512.794067 C1738.597656,521.890503 1738.597656,530.456604 1738.597656,539.372437 C1713.461182,539.372437 1688.405396,539.372437 1663.057129,539.372437 C1663.057129,503.778564 1663.057129,468.378448 1663.057129,432.268188 C1674.977539,432.268188 1686.738892,432.268188 1699.000244,432.268188 z"/>
<path fill="#030303" opacity="1.000000" stroke="none" d="M1428.942261,472.915588 C1432.059814,472.915588 1434.685791,472.915588 1437.666992,472.915588 C1437.666992,481.476868 1437.666992,489.523407 1437.666992,497.939087 C1425.942261,497.939087 1414.342407,497.939087 1402.401123,497.939087 C1402.401123,503.009003 1402.401123,507.722290 1402.401123,512.797791 C1417.985596,512.797791 1433.585449,512.797791 1449.563110,512.797791 C1449.563110,521.706421 1449.563110,530.276001 1449.563110,539.283813 C1424.685669,539.283813 1399.656982,539.283813 1374.216797,539.283813 C1374.216797,503.906158 1374.216797,468.529663 1374.216797,432.710022 C1399.185181,432.710022 1424.214355,432.710022 1449.594482,432.710022 C1449.594482,441.238434 1449.594482,449.798584 1449.594482,458.904297 C1433.953735,458.904297 1418.235840,458.904297 1402.289673,458.904297 C1402.289673,463.707153 1402.289673,467.979309 1402.289673,472.915588 C1410.942017,472.915588 1419.696289,472.915588 1428.942261,472.915588 z"/>
<path fill="#030303" opacity="1.000000" stroke="none" d="M602.122131,529.071838 C596.059998,528.177734 592.414246,529.646667 591.950012,536.113953 C591.858215,537.392700 589.688416,539.509705 588.415222,539.556335 C579.967957,539.865723 571.503845,539.716492 562.544006,539.716492 C562.822571,538.093323 562.913818,536.840271 563.257996,535.661072 C572.850159,502.800842 582.529419,469.965790 591.994751,437.069122 C593.042603,433.427246 594.437988,432.011963 598.393860,432.160858 C607.377197,432.499115 616.386780,432.118011 625.373657,432.405884 C626.971558,432.457092 629.522644,434.024719 629.929932,435.397522 C640.042297,469.487976 649.927002,503.645966 659.828491,537.798828 C659.952698,538.226990 659.770081,538.744019 659.688660,539.727417 C650.861328,539.727417 642.069946,539.904663 633.303833,539.513977 C632.144226,539.462341 630.399292,536.616272 630.160400,534.893066 C629.506775,530.178711 627.416687,528.591064 622.587952,528.949036 C615.960632,529.440186 609.269592,529.071838 602.122131,529.071838 z"/>
<path fill="#050505" opacity="1.000000" stroke="none" d="M952.405090,476.999756 C952.432434,462.336853 952.457642,448.173981 952.501709,434.011139 C952.502686,433.705170 952.720276,433.399872 952.836792,433.091400 C953.089844,432.888519 953.348267,432.506927 953.595093,432.514313 C971.044800,433.035095 988.597839,432.604248 1005.909912,434.441925 C1020.186218,435.957397 1031.438721,443.834625 1034.936401,458.827515 C1038.553223,474.330994 1038.128540,489.529663 1025.346802,501.396759 C1016.386536,509.715759 1004.789185,511.004059 993.243042,511.818573 C989.285583,512.097717 985.291931,511.862885 980.829712,511.862885 C980.829712,521.151917 980.829712,530.046570 980.829712,539.326416 C971.293518,539.326416 962.237427,539.326416 952.405090,539.326416 C952.405090,518.688904 952.405090,498.094330 952.405090,476.999756 z"/>
<path fill="#030303" opacity="1.000000" stroke="none" d="M1496.975220,539.902588 C1485.848511,538.293823 1475.958618,534.719116 1466.755371,528.026245 C1470.578247,520.465820 1474.362915,512.980957 1477.578247,506.622131 C1486.734253,509.354553 1495.147339,512.141296 1503.723511,514.272095 C1506.645264,514.998047 1510.083862,514.498352 1513.081543,513.744568 C1514.876953,513.293091 1517.223877,511.480133 1517.585327,509.885284 C1517.942627,508.308502 1516.605347,505.522034 1515.149048,504.522064 C1511.482178,502.004028 1507.355591,500.142090 1503.365112,498.111877 C1497.453003,495.104034 1491.207031,492.642334 1485.622559,489.123718 C1472.798096,481.043457 1467.435181,469.026093 1470.198975,456.152618 C1472.812866,443.977692 1483.248413,434.754578 1497.387207,432.271881 C1514.652100,429.240173 1530.354614,433.138763 1545.063843,443.249176 C1541.362061,450.678467 1537.706299,458.015289 1534.444580,464.561401 C1526.051514,462.111206 1518.383057,459.684753 1510.598999,457.715729 C1508.292725,457.132355 1505.512939,457.372894 1503.224976,458.100342 C1501.422607,458.673462 1499.250732,460.321075 1498.724976,461.965302 C1498.303589,463.282928 1499.667847,465.914734 1501.016357,466.899994 C1503.791748,468.927612 1507.023560,470.382812 1510.181396,471.823700 C1516.519897,474.715881 1523.191162,476.975983 1529.266479,480.328064 C1543.219360,488.026459 1548.857544,500.316132 1546.057983,515.424866 C1543.724976,528.015869 1533.090942,537.716980 1518.270386,539.660339 C1511.423218,540.558289 1504.371460,539.895813 1496.975220,539.902588 z"/>
<path fill="#030303" opacity="1.000000" stroke="none" d="M1587.127808,538.839294 C1578.272461,536.665955 1570.346436,533.445618 1563.009644,527.993408 C1566.928223,520.329346 1570.743042,512.868286 1574.727539,505.075439 C1583.000610,510.294556 1591.284912,514.034912 1600.627319,514.407654 C1603.898926,514.538208 1607.346436,514.324951 1610.458862,513.405640 C1614.889282,512.097046 1615.742798,507.877167 1612.112183,505.018921 C1609.023315,502.587158 1605.326416,500.886017 1601.790283,499.072632 C1595.000732,495.590820 1587.807861,492.779999 1581.371338,488.750153 C1569.786621,481.497070 1563.931274,470.812592 1566.416260,456.982147 C1568.891357,443.207153 1578.615601,435.937653 1591.469604,432.871735 C1609.489990,428.573456 1625.980469,432.733673 1641.379761,443.249359 C1637.641235,450.730560 1634.028198,457.960754 1630.252808,465.515808 C1626.605713,463.869537 1623.308105,461.744934 1619.709839,460.898010 C1613.496582,459.435638 1607.120605,458.419464 1600.760132,457.981537 C1598.903809,457.853699 1595.370605,460.217529 1595.270752,461.627869 C1595.125610,463.679535 1596.873291,466.857727 1598.732544,467.873474 C1604.391602,470.964844 1610.603027,473.025452 1616.386719,475.913361 C1621.855347,478.644012 1627.583008,481.265472 1632.265015,485.078796 C1642.656982,493.542572 1645.117188,505.037750 1641.760864,517.582764 C1638.128784,531.158508 1627.723267,537.814148 1614.781250,539.499084 C1605.877441,540.658386 1596.632324,539.196533 1587.127808,538.839294 z"/>
<path fill="#030303" opacity="1.000000" stroke="none" d="M1303.647705,534.363159 C1274.660889,519.167725 1270.349609,480.590485 1284.952393,456.544098 C1300.036865,431.704254 1334.602905,423.434998 1359.530762,439.332275 C1354.830322,446.845459 1350.121948,454.371155 1345.133057,462.345154 C1337.042114,458.377197 1328.591675,457.323639 1320.676025,461.515686 C1316.468384,463.743988 1312.458130,467.401825 1309.852417,471.390259 C1303.344849,481.351288 1304.659180,495.985352 1311.927612,504.545959 C1319.674805,513.670593 1331.278442,515.092957 1347.192017,508.559906 C1351.832153,515.826843 1356.535645,523.193054 1361.571045,531.078918 C1342.729614,542.983643 1323.676025,543.632141 1303.647705,534.363159 z"/>
<path fill="#040404" opacity="1.000000" stroke="none" d="M822.177673,432.265015 C828.651672,432.264832 834.662537,432.044617 840.637695,432.408936 C842.264404,432.508118 844.523254,434.010925 845.231506,435.478027 C849.547302,444.417908 853.499207,453.533417 858.071106,463.698822 C861.850891,455.280518 865.697327,448.012848 868.381592,440.338654 C870.671692,433.791412 874.237244,431.394073 881.130493,432.120667 C887.544617,432.796722 894.085999,432.265015 901.448303,432.265015 C900.558044,434.389038 899.940735,436.000885 899.218384,437.564240 C890.993042,455.365692 882.615662,473.099091 874.627563,491.006226 C873.002258,494.649658 872.205261,498.923065 872.098450,502.934570 C871.776306,515.037231 871.982239,527.153992 871.982239,539.493042 C862.564331,539.493042 853.636841,539.493042 844.059326,539.493042 C844.059326,532.528015 843.515442,525.554138 844.169495,518.694458 C845.656799,503.095703 841.846619,489.042572 834.558899,475.286621 C827.338623,461.657928 821.441711,447.328186 814.483459,432.265015 C817.310486,432.265015 819.505737,432.265015 822.177673,432.265015 z"/>
<path fill="#040404" opacity="1.000000" stroke="none" d="M708.999817,539.720825 C697.724670,539.720764 686.949585,539.720764 675.864380,539.720764 C675.864380,503.795868 675.864380,468.426453 675.864380,432.659729 C685.018005,432.659729 694.056274,432.659729 703.650085,432.659729 C703.650085,459.225525 703.650085,485.754211 703.650085,512.737366 C714.438293,512.737366 724.691650,512.737366 735.599731,512.737366 C735.599731,521.279358 735.699097,529.383911 735.441528,537.477051 C735.416504,538.261475 733.198486,539.588867 731.970520,539.621765 C724.484802,539.822266 716.990967,539.721252 708.999817,539.720825 z"/>
<path fill="#030303" opacity="1.000000" stroke="none" d="M795.982544,512.894287 C800.102905,512.894287 803.727356,512.894287 807.596436,512.894287 C807.596436,521.918335 807.596436,530.491577 807.596436,539.392639 C787.680786,539.392639 767.983337,539.392639 748.048401,539.392639 C748.048401,503.674438 748.048401,468.280121 748.048401,432.576904 C757.363647,432.576904 766.417480,432.576904 775.855957,432.576904 C775.855957,459.269287 775.855957,485.694122 775.855957,512.894287 C782.636658,512.894287 789.061646,512.894287 795.982544,512.894287 z"/>
<path fill="#040404" opacity="1.000000" stroke="none" d="M386.618713,444.047028 C386.618713,440.083618 386.618713,436.611694 386.618713,432.704285 C395.993896,432.704285 405.026215,432.704285 414.478943,432.704285 C414.478943,468.100494 414.478943,503.576538 414.478943,539.387268 C405.383179,539.387268 396.329346,539.387268 386.618683,539.387268 C386.618683,507.661285 386.618683,476.099884 386.618713,444.047028 z"/>
<path fill="#030303" opacity="1.000000" stroke="none" d="M258.271942,537.302185 C257.649933,538.387573 257.049652,539.582886 256.432434,539.591675 C247.830429,539.714355 239.226151,539.674744 230.335297,539.674744 C230.335297,503.752472 230.335297,468.386688 230.335297,432.643738 C239.507538,432.643738 248.562820,432.643738 258.285797,432.643738 C258.285797,467.405884 258.285797,502.133148 258.271942,537.302185 z"/>
<path fill="#FCFCFC" opacity="1.000000" stroke="none" d="M1084.047241,458.913940 C1089.816772,459.214172 1095.183960,459.011780 1100.344849,459.947357 C1106.233643,461.014862 1108.819458,465.208679 1108.787109,471.667572 C1108.754395,478.167603 1106.164307,482.578644 1100.305176,483.385437 C1092.815308,484.416687 1085.163330,484.271149 1077.286133,484.646851 C1077.286133,475.837128 1077.286133,467.634033 1077.286133,458.913940 C1079.358643,458.913940 1081.456177,458.913940 1084.047241,458.913940 z"/>
<path fill="#FCFCFC" opacity="1.000000" stroke="none" d="M1222.612549,506.568390 C1210.120605,518.587524 1192.033447,514.160950 1187.042603,498.032379 C1184.253784,489.019165 1184.529907,479.929291 1188.325317,471.206909 C1192.053833,462.638611 1199.034180,458.528259 1208.561035,458.814636 C1217.627563,459.087158 1223.661865,463.921631 1226.540283,472.099335 C1230.703857,483.927979 1230.311768,495.573364 1222.612549,506.568390 z"/>
<path fill="#FAFAFA" opacity="1.000000" stroke="none" d="M1808.416504,462.399933 C1814.035645,465.602020 1817.291016,470.383728 1817.867798,476.157867 C1818.535767,482.846802 1818.740845,489.790741 1817.689331,496.391876 C1816.247925,505.441254 1810.521362,511.186096 1800.958862,512.189331 C1796.565552,512.650269 1792.150635,512.906982 1787.468628,513.278259 C1787.468628,494.964752 1787.468628,477.393555 1787.468628,459.261444 C1794.553467,458.541473 1801.448730,459.297546 1808.416504,462.399933 z"/>
<path fill="#F5F5F5" opacity="1.000000" stroke="none" d="M611.947937,504.859467 C607.982971,504.859467 604.501343,504.859467 600.346741,504.859467 C603.826111,491.660614 607.189697,478.901123 610.553284,466.141602 C610.980164,466.106781 611.406982,466.071960 611.833801,466.037109 C615.168274,478.826202 618.502686,491.615265 621.955750,504.859467 C618.383362,504.859467 615.407349,504.859467 611.947937,504.859467 z"/>
<path fill="#FAFAFA" opacity="1.000000" stroke="none" d="M998.842773,459.772095 C1005.911011,462.323456 1008.480164,466.701630 1007.668762,474.234833 C1006.974976,480.676788 1003.489502,484.449280 996.713806,485.056946 C991.637695,485.512207 986.488037,485.146851 981.055359,485.146851 C981.055359,476.745422 981.055359,468.164154 981.055359,458.687744 C986.682129,459.004211 992.561584,459.334900 998.842773,459.772095 z"/>
</svg>