<svg version="1.1" id="Layer_1" xmlns="http://www.w3.org/2000/svg" xmlns:xlink="http://www.w3.org/1999/xlink" x="0px" y="0px"
	 width="100%" viewBox="0 0 1024 1024" enable-background="new 0 0 1024 1024" xml:space="preserve">
<path fill="#000000" opacity="1.000000" stroke="none" 
	d="
M531.894226,611.066284 
	C536.132385,615.532471 541.444458,616.155273 546.770264,616.731018 
	C549.075928,616.980286 551.646790,616.807007 553.324097,618.606628 
	C554.778564,620.167236 554.442505,622.454773 553.941650,624.357056 
	C553.230408,627.058594 550.746094,626.352051 548.897827,626.267029 
	C515.254883,624.719055 481.593597,625.391663 447.939209,625.426758 
	C440.118530,625.434937 432.299225,626.009033 424.477448,626.267761 
	C422.119324,626.345825 419.770966,626.530334 419.631226,622.933289 
	C419.503723,619.651855 420.124146,617.347595 423.888275,617.064148 
	C428.034363,616.752014 432.141785,616.254883 436.234772,615.412415 
	C443.326508,613.952637 447.370026,609.715454 448.480652,602.695312 
	C449.077728,598.921143 449.658081,595.090515 449.662933,591.284607 
	C449.740936,529.957397 449.729767,468.630157 449.705139,407.302917 
	C449.704498,405.695587 450.087494,403.995728 449.087860,402.277069 
	C447.192902,402.890839 446.970520,404.671234 446.415375,406.090118 
	C422.753357,466.571014 399.122314,527.064087 375.473114,587.549988 
	C371.107056,598.716736 366.690460,609.863770 362.274475,621.010803 
	C361.308990,623.447876 360.728668,626.105469 357.125702,626.212524 
	C353.309814,626.325867 352.487213,623.561523 351.361023,620.998047 
	C338.097443,590.806580 324.862152,560.602722 311.601501,530.409973 
	C291.710480,485.120636 271.809265,439.835663 251.885925,394.560486 
	C251.310623,393.253113 251.009293,391.717010 248.595169,390.175293 
	C248.595169,395.770508 248.579163,400.672516 248.597580,405.574402 
	C248.813599,463.051239 248.989182,520.528320 249.332962,578.004456 
	C249.363602,583.126099 250.321915,588.269592 251.153229,593.353210 
	C252.852249,603.742859 259.008881,610.421265 268.950012,613.533020 
	C273.227356,614.871887 277.630524,615.853638 282.026459,616.753784 
	C285.284180,617.420776 287.039886,618.867676 286.798065,622.467163 
	C286.541107,626.291748 284.149109,626.553528 281.243256,626.291077 
	C264.617920,624.789490 247.951477,625.342651 231.299103,625.375732 
	C226.484772,625.385315 221.673996,625.993958 216.856674,626.226074 
	C214.722946,626.328979 212.288620,626.658142 211.902451,623.504150 
	C211.537125,620.520325 211.603912,617.692932 215.335770,616.830627 
	C232.023346,612.974731 236.508087,600.624756 237.776596,585.515808 
	C239.369888,566.538635 238.557037,547.555542 238.628387,528.578857 
	C238.796310,483.917145 238.684952,439.254425 238.657227,394.592102 
	C238.655777,392.270081 238.586761,389.913452 238.200500,387.631958 
	C235.650421,372.569427 232.562820,369.650543 217.197281,368.344147 
	C213.180984,368.002686 211.491821,366.438141 211.790894,362.413147 
	C211.981567,359.846954 213.147614,358.877625 215.624054,359.037842 
	C244.092239,360.879486 272.586212,359.326477 301.066833,359.625244 
	C306.051453,359.677551 311.058289,359.321991 316.025024,358.844727 
	C320.269379,358.436859 322.553802,359.905670 324.351471,363.989563 
	C344.816345,410.480743 365.479034,456.884949 386.136139,503.291351 
	C388.003876,507.487244 389.542847,511.881927 392.830536,516.519775 
	C397.055878,505.905365 401.051361,496.074921 404.891846,486.184296 
	C420.322937,446.443726 435.815002,406.725983 450.980042,366.883911 
	C453.063263,361.410797 455.872955,359.749390 461.587982,359.804962 
	C486.082153,360.043335 510.581482,359.810272 535.078369,359.656647 
	C539.900452,359.626404 544.720581,359.197876 549.540588,358.933502 
	C552.642273,358.763367 554.126038,360.116608 554.205933,363.310944 
	C554.283081,366.397400 553.052490,368.041840 549.932861,368.180328 
	C549.600037,368.195068 549.267395,368.221130 548.935791,368.253265 
	C532.034729,369.890350 527.430359,374.465393 527.400513,391.161469 
	C527.278931,459.154449 527.318909,527.147827 527.417603,595.140808 
	C527.425537,600.616577 528.212891,606.123657 531.894226,611.066284 
z"/>
<path fill="#000000" opacity="1.000000" stroke="none" 
	d="
M803.984009,400.117767 
	C816.744263,422.166351 815.669495,444.302521 805.783936,466.524750 
	C796.929260,486.429230 780.751770,498.665375 761.304688,506.725861 
	C742.231750,514.631348 722.221497,518.587280 701.449890,518.358337 
	C694.970459,518.286865 688.485657,518.914917 681.999756,519.093201 
	C679.263123,519.168396 678.027649,520.403381 678.094238,523.072998 
	C678.716003,548.028687 676.546021,573.037231 679.340759,597.946228 
	C680.482910,608.126038 686.299500,613.699036 696.614502,614.800232 
	C702.404724,615.418457 708.235657,615.682007 714.053894,616.002563 
	C717.922363,616.215698 720.376282,617.510498 720.136597,622.002319 
	C719.900146,626.433533 716.970703,626.334656 713.816650,626.336487 
	C682.497070,626.354126 651.198364,624.504761 619.870667,625.287598 
	C606.552917,625.620361 593.235474,625.971741 579.917358,626.288757 
	C577.040100,626.357239 574.026184,626.610168 573.762573,622.395630 
	C573.502441,618.236267 576.265808,617.456604 579.467834,617.031799 
	C581.772461,616.726013 584.094849,616.473450 586.361633,615.978516 
	C594.438232,614.215027 598.330200,610.370789 599.457764,602.391296 
	C600.200745,597.133362 600.635681,591.785339 600.642517,586.476929 
	C600.722107,524.324890 600.722473,462.172607 600.645996,400.020538 
	C600.639282,394.545349 600.174683,389.043365 599.518677,383.602570 
	C598.459656,374.819580 592.386108,369.595184 582.323425,368.390594 
	C581.167847,368.252258 579.994934,368.262024 578.831055,368.187988 
	C575.785767,367.994263 573.765503,366.790619 573.739502,363.342407 
	C573.711792,359.659668 576.026978,358.849396 579.006836,358.937836 
	C588.662109,359.224243 598.323364,359.427612 607.967834,359.936707 
	C624.121643,360.789429 640.267212,359.974426 656.414795,359.913696 
	C668.404663,359.868591 680.404907,359.426147 692.384277,359.325684 
	C720.638062,359.088684 748.697632,361.011871 774.643738,373.943359 
	C786.623108,379.913879 796.643127,388.292114 803.984009,400.117767 
M731.485657,409.963379 
	C730.487366,404.061066 729.410156,398.181244 727.649475,392.440186 
	C722.148499,374.502655 711.026489,366.812683 692.616089,368.323975 
	C687.234924,368.765747 683.176331,371.124115 680.913574,376.279724 
	C678.929382,380.800659 678.282593,385.565155 678.266663,390.387665 
	C678.150208,425.699249 677.983215,461.011749 678.139526,496.322601 
	C678.205933,511.313660 674.684387,510.526337 692.331909,509.659027 
	C704.992249,509.036743 715.541626,503.982697 722.058044,492.444000 
	C726.692932,484.237091 729.127441,475.276733 730.716125,466.056580 
	C733.879456,447.697723 733.314331,429.280396 731.485657,409.963379 
z"/>
</svg>