<svg version="1.1" id="Layer_1" xmlns="http://www.w3.org/2000/svg" xmlns:xlink="http://www.w3.org/1999/xlink" x="0px" y="0px"
	 width="100%" viewBox="0 0 1024 1024" enable-background="new 0 0 1024 1024" xml:space="preserve">
<path fill="#000000" opacity="1.000000" stroke="none" 
	d="
M219.595596,384.000122 
	C219.604599,378.000183 219.705185,372.498291 219.587738,367.001007 
	C219.517288,363.703918 220.756470,361.989380 224.189667,361.990417 
	C248.855850,361.997955 273.522034,361.982910 298.188202,361.955017 
	C301.602783,361.951172 303.540283,364.053589 305.472168,366.504303 
	C324.967163,391.234955 344.509064,415.928589 364.066254,440.610107 
	C369.184692,447.069641 369.839813,447.036194 375.026428,440.490479 
	C394.480408,415.938965 413.972168,391.417053 433.322266,366.783844 
	C436.046478,363.315857 439.057098,361.825165 443.502716,361.857178 
	C466.501434,362.022888 489.502014,361.919312 512.501953,361.932617 
	C518.935913,361.936340 519.330566,362.340942 519.332153,368.686218 
	C519.353577,453.019196 519.348999,537.352173 519.453491,621.685059 
	C519.457764,625.173584 518.423279,626.411377 514.933167,626.398376 
	C490.266937,626.306091 465.599579,626.253296 440.934113,626.416443 
	C435.644440,626.451477 435.570374,623.439636 435.574951,619.616089 
	C435.629150,574.449585 435.640350,529.283081 435.589569,484.116608 
	C435.586731,481.587921 436.891693,477.894836 433.992676,476.858734 
	C430.706299,475.684265 429.563477,479.624573 427.952454,481.714325 
	C410.455658,504.410492 393.040405,527.169495 375.609253,549.916199 
	C370.579010,556.480347 368.556061,556.485413 363.584503,550.002319 
	C345.637207,526.598633 327.680115,503.202393 309.704834,479.820160 
	C308.409271,478.134857 307.267975,476.197998 304.628937,475.594116 
	C302.733612,477.807465 303.343536,480.544312 303.341705,483.070892 
	C303.309113,528.403809 303.323669,573.736816 303.317261,619.069763 
	C303.316223,626.353821 303.292145,626.346802 296.223602,626.344177 
	C273.057037,626.335693 249.890442,626.337402 226.723862,626.325134 
	C219.599579,626.321350 219.566360,626.289673 219.566940,618.997437 
	C219.573151,540.831665 219.585052,462.665863 219.595596,384.000122 
z"/>
<path fill="#000000" opacity="1.000000" stroke="none" 
	d="
M782.014526,382.964447 
	C799.004028,397.099426 806.599304,415.631378 809.321228,436.613037 
	C811.225281,451.290558 810.646790,465.809875 806.442261,480.094666 
	C796.893188,512.537048 774.295959,530.266479 742.123718,537.247253 
	C734.266968,538.951965 726.329834,539.311951 718.308655,539.266663 
	C695.651550,539.138733 672.992371,539.322083 650.336060,539.136353 
	C645.572571,539.097351 643.974854,540.623962 644.014221,545.448120 
	C644.213989,569.936951 644.121765,594.428223 644.111450,618.918640 
	C644.108459,626.016418 643.786255,626.330200 636.868286,626.333130 
	C612.211243,626.343628 587.554260,626.348511 562.897217,626.341797 
	C556.351013,626.340027 555.981079,626.031189 555.980286,619.701355 
	C555.969788,536.067383 555.975830,452.433380 555.997314,368.799377 
	C555.998901,362.548553 556.454346,362.101990 564.052795,362.124329 
	C600.866821,362.232605 637.680603,362.411926 674.494507,362.571747 
	C691.808594,362.646912 709.138123,361.241028 726.433777,362.704651 
	C746.629333,364.413696 765.873962,368.974304 782.014526,382.964447 
M718.913818,462.305176 
	C726.734802,447.045197 720.175293,432.865173 703.585266,431.847137 
	C685.197937,430.718750 666.694153,431.465179 648.241089,431.452576 
	C645.001648,431.450348 644.108765,433.560547 644.120239,436.460632 
	C644.158569,446.104767 644.176880,455.749847 644.071289,465.393127 
	C644.036865,468.537415 645.219849,469.916870 648.448120,469.901642 
	C667.403564,469.812347 686.360168,469.908661 705.314453,469.733612 
	C710.686218,469.683990 715.342896,467.565582 718.913818,462.305176 
z"/>
</svg>