<svg version="1.1" id="Layer_1" xmlns="http://www.w3.org/2000/svg" xmlns:xlink="http://www.w3.org/1999/xlink" x="0px" y="0px"
	 width="100%" viewBox="0 0 1080 1080" enable-background="new 0 0 1080 1080" xml:space="preserve">
<path fill="#FFFFFF" opacity="1.000000" stroke="none" 
	d="
M498.000000,1081.000000 
	C332.019104,1081.000000 166.538193,1081.000000 1.028647,1081.000000 
	C1.028647,721.060669 1.028647,361.121277 1.028647,1.090960 
	C360.897797,1.090960 720.795654,1.090960 1080.846680,1.090960 
	C1080.846680,360.999939 1080.846680,720.999939 1080.846680,1081.000000 
	C886.787537,1081.000000 692.643738,1081.000000 498.000000,1081.000000 
M447.382111,511.874847 
	C449.501495,509.094971 451.474243,506.183655 453.800171,503.588928 
	C455.025238,502.222290 456.867279,501.408691 458.430756,500.345398 
	C458.941620,502.068268 459.896088,503.790436 459.898834,505.514099 
	C459.977783,555.008240 460.005524,604.502625 459.883301,653.996582 
	C459.872559,658.358093 460.747559,660.111267 465.649170,660.062195 
	C491.310303,659.805420 516.975342,659.946472 542.639038,659.931519 
	C544.057556,659.930664 545.475891,659.772095 546.917725,659.685486 
	C547.008606,658.497009 547.102783,657.840759 547.102783,657.184570 
	C547.101135,567.195129 547.065063,477.205658 547.175110,387.216370 
	C547.179993,383.216095 545.730713,382.571167 542.231812,382.587616 
	C517.068604,382.705811 491.904053,382.734131 466.741455,382.562927 
	C462.826233,382.536285 460.312561,383.751404 457.907837,386.814636 
	C436.839447,413.652405 415.629944,440.379425 394.444550,467.125214 
	C390.424683,472.200165 388.989166,472.197968 384.965271,467.121765 
	C363.562805,440.122437 342.231934,413.065887 320.672882,386.192291 
	C319.181763,384.333618 316.047760,382.823486 313.662140,382.800964 
	C288.167389,382.559814 262.668945,382.736633 237.173019,382.568604 
	C232.925873,382.540649 231.878708,383.999237 231.883194,388.049377 
	C231.981735,476.872284 231.992645,565.695374 231.859543,654.518250 
	C231.852722,659.070251 233.306808,660.064453 237.578842,660.033447 
	C262.907898,659.849670 288.238983,659.942322 313.569366,659.941956 
	C315.319153,659.941895 317.068909,659.941895 319.138184,659.941895 
	C319.138184,657.460510 319.138184,655.805359 319.138184,654.150208 
	C319.138153,604.489319 319.125885,554.828369 319.191681,505.167542 
	C319.193878,503.528656 319.987946,501.890808 320.412872,500.252472 
	C322.015656,501.209625 324.087891,501.803406 325.151794,503.177765 
	C345.014496,528.836975 364.769226,554.579956 384.516052,580.328796 
	C388.749237,585.848755 390.450134,585.974243 394.634888,580.536133 
	C412.090942,557.851929 429.507996,535.137695 447.382111,511.874847 
M796.579224,562.163025 
	C798.710083,561.240845 800.835022,560.304871 802.972656,559.398682 
	C822.874512,550.961609 837.401123,536.983704 845.896362,517.073120 
	C855.605652,494.317078 855.882385,470.832458 850.290405,447.097748 
	C846.409973,430.627136 838.216064,416.606598 825.471191,405.347107 
	C807.595032,389.554474 785.940613,383.326569 762.898499,383.077667 
	C705.765015,382.460449 648.620728,382.838196 591.480774,382.832855 
	C590.195984,382.832733 588.911255,383.030670 587.578979,383.140106 
	C587.578979,475.444702 587.578979,567.464539 587.578979,659.607788 
	C588.515381,659.756775 589.147522,659.945068 589.779785,659.945312 
	C617.933289,659.955444 646.087280,659.874756 674.239929,660.027405 
	C678.318420,660.049500 678.339294,657.960999 678.334534,655.037048 
	C678.290222,627.883057 678.303406,600.729065 678.317627,573.575012 
	C678.318542,571.797485 678.464478,570.020081 678.561401,567.825439 
	C681.042847,567.825439 683.022217,567.825439 685.001526,567.825439 
	C708.657166,567.825439 732.316589,567.573792 755.967102,567.922119 
	C769.605835,568.122925 782.829590,566.356873 796.579224,562.163025 
M338.070251,740.500000 
	C338.070312,751.496338 338.049316,762.492798 338.082825,773.489014 
	C338.093323,776.940063 338.160400,776.939880 342.147064,776.404907 
	C342.147064,759.170288 342.147064,741.882324 342.147064,724.594299 
	C343.221405,726.079346 343.629913,727.638123 344.009583,729.203918 
	C347.572998,743.899109 351.225372,758.573914 354.614624,773.309204 
	C355.318207,776.368225 356.325531,777.819885 359.858398,776.570801 
	C363.957642,759.257202 368.100403,741.759705 372.243195,724.262146 
	C372.550873,724.311829 372.858521,724.361511 373.166199,724.411194 
	C373.166199,741.853333 373.166199,759.295532 373.166199,777.037292 
	C374.708160,776.900024 375.903931,776.793579 376.980072,776.697815 
	C376.980072,755.181580 376.980072,734.064758 376.980072,712.803223 
	C374.956085,712.803223 373.154907,712.803223 371.153809,712.803223 
	C366.837891,730.964783 362.540009,749.050476 358.242126,767.136230 
	C357.894135,767.083801 357.546143,767.031372 357.198151,766.978943 
	C352.902222,749.071472 348.606323,731.164062 344.314362,713.273132 
	C342.097504,713.273132 340.210144,713.273132 338.070251,713.273132 
	C338.070251,722.214233 338.070251,730.857117 338.070251,740.500000 
M248.486816,756.859009 
	C244.984634,742.231628 241.482437,727.604248 238.045639,713.250000 
	C235.656998,713.250000 233.912689,713.250000 232.141190,713.250000 
	C232.141190,734.615723 232.141190,755.707275 232.141190,776.798828 
	C232.575439,777.046936 233.009689,777.295044 233.443939,777.543152 
	C234.231262,776.362976 235.649139,775.208740 235.698746,773.998291 
	C235.937225,768.180603 235.806290,762.347717 235.806335,756.520264 
	C235.806427,746.135803 235.806381,735.751343 235.806381,725.366882 
	C236.135422,725.324890 236.464462,725.282898 236.793503,725.240845 
	C240.944397,742.399109 245.095291,759.557312 249.202438,776.534668 
	C252.715775,777.855530 253.771393,776.402527 254.427109,773.345093 
	C256.481232,763.767273 258.827332,754.251831 261.093445,744.720032 
	C262.770905,737.664307 264.500031,730.620850 266.206146,723.571960 
	C266.496674,723.629883 266.787231,723.687805 267.077759,723.745728 
	C267.077759,741.361633 267.077759,758.977539 267.077759,776.984131 
	C268.495544,776.906128 269.674164,776.841248 270.853027,776.776367 
	C270.853027,755.295776 270.853027,734.200806 270.853027,712.951172 
	C268.791809,712.951172 266.904266,712.951172 264.850403,712.951172 
	C260.489746,731.383728 256.184021,749.583984 251.878311,767.784241 
	C251.638397,767.776672 251.398468,767.769104 251.158539,767.761475 
	C250.358444,764.388062 249.558334,761.014709 248.486816,756.859009 
M294.036194,734.521362 
	C294.036194,730.575867 294.036194,726.630432 294.036194,722.684937 
	C295.137817,723.641113 295.645844,724.761292 296.056122,725.916077 
	C301.664581,741.702209 307.365234,757.456970 312.773254,773.311646 
	C313.926178,776.691650 315.436340,777.813110 318.942566,776.543579 
	C318.942566,756.177185 318.984528,735.884033 318.821320,715.592590 
	C318.812988,714.554504 317.043030,713.530579 316.093262,712.500122 
	C315.670197,712.829712 315.247162,713.159363 314.824127,713.489014 
	C314.824127,730.439087 314.824127,747.389221 314.824127,764.339294 
	C314.590332,764.370728 314.356567,764.402100 314.122772,764.433472 
	C307.994904,747.333923 301.867065,730.234314 295.674866,712.955200 
	C293.746124,713.041748 292.015228,713.119385 290.077789,713.206299 
	C290.077789,733.743103 290.128113,753.869385 290.027832,773.994873 
	C290.011292,777.313904 291.476807,777.313599 294.036194,776.713013 
	C294.036194,762.783813 294.036194,749.149231 294.036194,734.521362 
M620.048706,777.913086 
	C627.390930,776.616699 631.235596,771.735107 631.473206,764.793518 
	C631.922424,751.663635 632.106140,738.483154 631.449707,725.371216 
	C630.998291,716.355042 625.394897,711.849792 617.204895,711.968018 
	C609.330017,712.081726 604.086670,716.617859 603.676636,725.546021 
	C603.082031,738.495911 603.032227,751.518066 603.684082,764.462402 
	C604.174011,774.191223 609.315552,778.023987 620.048706,777.913086 
M835.276733,755.303833 
	C835.225586,745.660095 835.372375,736.009949 835.058655,726.374756 
	C834.820618,719.065552 830.909119,714.116882 824.365417,713.382324 
	C818.688904,712.745178 812.884277,713.249817 807.195923,713.249817 
	C807.195923,734.623352 807.195923,755.662231 807.195923,777.010498 
	C809.734741,777.010498 812.038208,776.885193 814.324524,777.030457 
	C831.664307,778.132446 835.939697,772.177063 835.276733,755.303833 
M591.770996,775.669373 
	C593.070801,776.219177 594.370605,776.768982 595.095093,777.075439 
	C595.095093,771.332520 594.973938,766.088379 595.126038,760.852173 
	C595.311279,754.476746 594.065552,748.924683 587.323792,746.091675 
	C595.164551,740.845032 598.160583,725.349670 592.643005,718.066528 
	C590.999939,715.897644 587.934814,713.884766 585.309448,713.570618 
	C579.644714,712.892761 573.842651,713.362183 568.131104,713.362183 
	C568.131104,734.421326 568.131104,755.515808 568.131104,776.976501 
	C569.530212,776.899536 570.723511,776.833862 572.232727,776.750854 
	C572.232727,767.144043 572.232727,757.882202 572.232727,748.160706 
	C574.508362,748.160706 576.456543,748.123657 578.402832,748.166992 
	C587.826172,748.376709 590.812439,751.461487 590.951294,760.907593 
	C591.019653,765.553528 591.259705,770.196838 591.770996,775.669373 
M407.340088,726.952271 
	C406.299896,722.309143 405.259735,717.666016 404.240875,713.117981 
	C401.880096,713.117981 400.073700,713.117981 398.015259,713.117981 
	C393.343201,734.361572 388.690765,755.516052 384.038330,776.670532 
	C391.373169,774.589600 388.365356,767.350647 391.681396,763.193298 
	C397.954712,763.193298 404.416473,763.193298 411.085480,763.193298 
	C411.773163,766.209290 412.304138,769.158203 413.140625,772.017700 
	C413.858582,774.471985 413.395386,778.621399 418.469513,776.461914 
	C414.836792,760.154053 411.227112,743.949585 407.340088,726.952271 
M643.571594,714.968262 
	C642.057373,717.855530 639.326660,720.704834 639.235046,723.636658 
	C638.787964,737.941895 638.636658,752.286133 639.224487,766.581787 
	C639.523499,773.854370 645.310242,778.032593 652.572693,778.014526 
	C659.823059,777.996399 664.997742,773.767395 665.905823,766.486084 
	C666.394043,762.570984 665.992615,758.544983 665.992615,754.474060 
	C663.314514,753.421875 662.130676,754.235840 662.217407,757.314270 
	C662.301575,760.302490 662.765686,763.604858 661.699890,766.212158 
	C660.559265,769.002686 658.221252,772.450195 655.683167,773.216125 
	C652.880005,774.062073 648.440369,773.136658 646.226074,771.228088 
	C644.124512,769.416382 643.204773,765.359497 643.110596,762.249146 
	C642.762695,750.763611 642.961548,739.261108 642.986328,727.765076 
	C642.989197,726.439270 643.038696,725.080322 643.324646,723.794189 
	C644.523865,718.400696 647.983948,715.736084 653.274231,716.002319 
	C658.115295,716.245972 661.303406,719.313171 661.976990,724.601990 
	C662.249390,726.741089 661.873352,728.998108 662.375427,731.059448 
	C662.677734,732.300964 664.102478,733.269043 665.022888,734.359985 
	C665.459351,734.038818 665.895874,733.717651 666.332397,733.396484 
	C666.381836,726.487793 667.283936,719.115723 660.583252,714.396912 
	C655.367554,710.723816 649.617249,711.132385 643.571594,714.968262 
M766.425903,768.754211 
	C768.975281,759.535889 766.386902,752.098816 758.786804,746.300354 
	C755.353149,743.680786 751.896362,741.050720 748.748901,738.105957 
	C743.836853,733.510254 743.065186,727.754944 745.197632,721.599670 
	C746.470154,717.926758 749.282410,716.113464 753.206665,715.989502 
	C757.276001,715.861084 760.403687,717.355286 761.938293,721.238159 
	C762.594788,722.899536 762.990234,724.772888 763.006287,726.554382 
	C763.033508,729.601196 764.271179,730.292358 767.096191,729.279785 
	C767.096191,727.857178 767.178589,726.540039 767.082703,725.236023 
	C766.487244,717.134033 761.695740,712.193481 754.311768,712.013733 
	C746.188293,711.815979 740.901428,716.572510 740.018799,724.839600 
	C739.320801,731.377258 740.989990,737.059570 746.111511,741.421631 
	C748.765991,743.682617 751.747253,745.586975 754.239380,748.004456 
	C757.056702,750.737488 760.167114,753.512024 761.939453,756.901489 
	C764.877808,762.521057 762.635620,770.117371 758.212219,772.436157 
	C750.714966,776.366272 744.305542,772.105408 743.840393,762.882080 
	C743.614441,758.401001 743.614441,758.401001 739.887878,759.179443 
	C739.282043,769.927795 742.281067,775.630371 749.550476,777.552734 
	C756.859070,779.485474 762.908142,776.542786 766.425903,768.754211 
M728.961426,727.493591 
	C729.931274,728.401123 730.901123,729.308716 731.870972,730.216248 
	C732.315308,729.876038 732.759644,729.535828 733.203979,729.195618 
	C732.888794,726.779541 732.805786,724.304993 732.214233,721.958618 
	C730.555481,715.378967 726.211853,712.026062 719.704041,712.006958 
	C712.804810,711.986694 707.910278,715.346558 706.409912,721.775635 
	C704.736572,728.945984 705.429626,735.760864 711.445862,740.975220 
	C715.588562,744.565796 719.965271,747.888000 724.079285,751.509766 
	C728.306274,755.230896 729.673584,760.027466 728.504028,765.509949 
	C727.286316,771.218018 723.956909,773.803345 718.272949,773.569214 
	C713.206238,773.360535 710.567078,770.725098 709.761719,764.976257 
	C709.554565,763.497375 709.740479,761.930664 709.331116,760.525146 
	C709.089050,759.694092 708.034058,759.099854 707.344666,758.399170 
	C706.649963,759.108521 705.480530,759.731812 705.333801,760.540588 
	C703.810852,768.937744 709.355225,776.990112 717.148254,777.917847 
	C726.431152,779.022888 732.514099,773.519287 733.079285,763.752930 
	C733.429993,757.692627 731.633179,752.592590 727.034058,748.614502 
	C724.270935,746.224609 721.094055,744.265930 718.566467,741.663391 
	C715.618164,738.627563 712.194031,735.485901 710.712463,731.709167 
	C707.400574,723.266357 712.377869,715.609741 720.078857,716.011719 
	C725.479614,716.293640 727.878174,719.179321 728.961426,727.493591 
M534.077576,774.171143 
	C533.731262,777.792664 535.872498,777.246765 538.450806,776.570068 
	C538.450806,768.158264 538.450806,759.744446 538.450806,750.869934 
	C541.930603,750.869934 545.079285,751.056396 548.198547,750.832947 
	C555.817749,750.286987 560.397644,746.338562 560.951599,739.390808 
	C561.346191,734.441101 561.329529,729.404785 560.908447,724.457153 
	C560.361877,718.036072 556.337219,713.767212 550.189880,713.231506 
	C544.967773,712.776367 539.674500,713.137573 534.077332,713.137573 
	C534.077332,733.412292 534.077332,753.322510 534.077576,774.171143 
M684.518799,746.983948 
	C687.962402,746.983948 691.406006,746.983948 694.987183,746.983948 
	C694.987183,745.451111 694.987183,744.355835 694.987183,742.844055 
	C689.213501,742.844055 683.635010,742.844055 678.101440,742.844055 
	C678.101440,734.037964 678.101440,725.652161 678.101440,716.983337 
	C684.185425,716.983337 689.984253,717.033997 695.781555,716.962158 
	C698.717712,716.925781 698.716492,716.825806 698.378601,713.228027 
	C690.143188,713.228027 681.907166,713.228027 673.536621,713.228027 
	C673.536621,734.553284 673.536621,755.601135 673.536621,776.840576 
	C682.042053,776.840576 690.292480,776.840576 698.551941,776.840576 
	C699.632812,773.720154 698.397156,772.919067 695.574890,772.985291 
	C689.794067,773.120911 684.007874,773.025940 678.022461,773.025940 
	C678.022461,764.214172 678.022461,755.824097 678.022461,746.983948 
	C679.966125,746.983948 681.757568,746.983948 684.518799,746.983948 
M785.519958,777.048523 
	C790.295349,777.048523 795.070740,777.048523 799.804382,777.048523 
	C799.804382,775.602234 799.864746,774.055908 799.795837,774.050171 
	C792.853455,773.467468 785.901367,773.001404 779.139771,772.540955 
	C779.139771,763.982544 779.139771,755.589783 779.139771,746.926941 
	C784.898987,746.926941 790.335144,746.926941 796.105042,746.926941 
	C796.023499,745.427002 795.958313,744.228882 795.879395,742.776855 
	C790.051025,742.776855 784.601807,742.776855 779.053711,742.776855 
	C779.053711,734.115479 779.053711,725.732361 779.053711,716.983459 
	C785.078125,716.983459 790.870300,716.877075 796.655823,717.027710 
	C799.601868,717.104492 800.573547,716.122742 799.538757,713.177368 
	C791.240662,713.177368 782.995911,713.177368 774.517212,713.177368 
	C774.517212,734.449463 774.517212,755.495972 774.517212,777.048523 
	C777.971985,777.048523 781.251770,777.048523 785.519958,777.048523 
M486.786163,730.856445 
	C493.265961,745.478210 496.803314,760.635559 494.270477,776.695190 
	C496.354980,776.695190 497.568359,776.695190 498.966614,776.695190 
	C498.966614,772.721375 499.114197,769.062500 498.936646,765.419556 
	C498.535919,757.197693 499.471100,749.355347 502.797516,741.619751 
	C506.751343,732.425293 509.801758,722.842285 513.243652,713.427673 
	C512.790833,713.069275 512.338013,712.710938 511.885162,712.352539 
	C510.633392,713.546021 508.811737,714.511169 508.226532,715.971741 
	C505.388641,723.054626 502.883392,730.270691 500.258148,737.438843 
	C499.341400,739.942078 498.418579,742.443054 497.498566,744.945068 
	C492.861816,735.283081 489.320953,725.846497 485.981750,716.338989 
	C484.994293,713.527466 483.721375,712.028137 480.401031,713.465515 
	C482.414337,719.013977 484.433899,724.579590 486.786163,730.856445 
M460.378479,733.500732 
	C460.378479,726.736328 460.378479,719.971924 460.378479,713.147705 
	C458.693756,713.147705 457.575562,713.147705 456.286804,713.147705 
	C456.286804,734.400391 456.286804,755.486755 456.286804,776.685669 
	C464.548340,776.685669 472.596344,776.685669 480.644348,776.685669 
	C480.758942,775.969849 480.873505,775.254089 480.988098,774.538269 
	C474.771454,770.799500 467.076111,774.721008 460.378448,772.439209 
	C460.378448,759.817688 460.378448,747.159180 460.378479,733.500732 
M429.378479,747.500488 
	C429.378479,736.071716 429.378479,724.643005 429.378479,713.146240 
	C427.696381,713.146240 426.577667,713.146240 425.077393,713.146240 
	C425.077393,715.113342 425.077423,716.919128 425.077423,718.724976 
	C425.077423,738.007812 425.077393,757.290588 425.077393,776.687378 
	C433.546326,776.687378 441.595245,776.687378 449.742859,776.687378 
	C449.676910,775.522949 449.687958,773.984741 449.575226,773.975647 
	C442.911011,773.436157 436.236603,773.022766 429.378448,772.585571 
	C429.378448,764.486694 429.378448,756.493652 429.378479,747.500488 
M330.853668,745.500000 
	C330.853668,734.721313 330.853668,723.942688 330.853668,713.372070 
	C327.264313,712.268616 326.149872,713.201904 326.171906,716.502930 
	C326.298767,735.500366 326.300446,754.499451 326.176392,773.496948 
	C326.152100,777.219910 327.632507,777.633118 330.853668,776.572205 
	C330.853668,766.454590 330.853668,756.477295 330.853668,745.500000 
M278.743195,770.437500 
	C278.743195,772.543640 278.743195,774.649719 278.743195,777.095093 
	C280.516327,776.887817 281.714508,776.747742 282.959625,776.602173 
	C282.959625,756.250122 282.898071,736.280884 283.017975,716.312805 
	C283.038910,712.830261 281.736237,712.401489 278.743195,713.482117 
	C278.743195,732.204651 278.743195,750.826233 278.743195,770.437500 
z"/>
<path fill="#000000" opacity="1.000000" stroke="none" 
	d="
M447.160706,512.154663 
	C429.507996,535.137695 412.090942,557.851929 394.634888,580.536133 
	C390.450134,585.974243 388.749237,585.848755 384.516052,580.328796 
	C364.769226,554.579956 345.014496,528.836975 325.151794,503.177765 
	C324.087891,501.803406 322.015656,501.209625 320.412872,500.252472 
	C319.987946,501.890808 319.193878,503.528656 319.191681,505.167542 
	C319.125885,554.828369 319.138153,604.489319 319.138184,654.150208 
	C319.138184,655.805359 319.138184,657.460510 319.138184,659.941895 
	C317.068909,659.941895 315.319153,659.941895 313.569366,659.941956 
	C288.238983,659.942322 262.907898,659.849670 237.578842,660.033447 
	C233.306808,660.064453 231.852722,659.070251 231.859543,654.518250 
	C231.992645,565.695374 231.981735,476.872284 231.883194,388.049377 
	C231.878708,383.999237 232.925873,382.540649 237.173019,382.568604 
	C262.668945,382.736633 288.167389,382.559814 313.662140,382.800964 
	C316.047760,382.823486 319.181763,384.333618 320.672882,386.192291 
	C342.231934,413.065887 363.562805,440.122437 384.965271,467.121765 
	C388.989166,472.197968 390.424683,472.200165 394.444550,467.125214 
	C415.629944,440.379425 436.839447,413.652405 457.907837,386.814636 
	C460.312561,383.751404 462.826233,382.536285 466.741455,382.562927 
	C491.904053,382.734131 517.068604,382.705811 542.231812,382.587616 
	C545.730713,382.571167 547.179993,383.216095 547.175110,387.216370 
	C547.065063,477.205658 547.101135,567.195129 547.102783,657.184570 
	C547.102783,657.840759 547.008606,658.497009 546.917725,659.685486 
	C545.475891,659.772095 544.057556,659.930664 542.639038,659.931519 
	C516.975342,659.946472 491.310303,659.805420 465.649170,660.062195 
	C460.747559,660.111267 459.872559,658.358093 459.883301,653.996582 
	C460.005524,604.502625 459.977783,555.008240 459.898834,505.514099 
	C459.896088,503.790436 458.941620,502.068268 458.430756,500.345398 
	C456.867279,501.408691 455.025238,502.222290 453.800171,503.588928 
	C451.474243,506.183655 449.501495,509.094971 447.160706,512.154663 
z"/>
<path fill="#010101" opacity="1.000000" stroke="none" 
	d="
M796.198730,562.274170 
	C782.829590,566.356873 769.605835,568.122925 755.967102,567.922119 
	C732.316589,567.573792 708.657166,567.825439 685.001526,567.825439 
	C683.022217,567.825439 681.042847,567.825439 678.561401,567.825439 
	C678.464478,570.020081 678.318542,571.797485 678.317627,573.575012 
	C678.303406,600.729065 678.290222,627.883057 678.334534,655.037048 
	C678.339294,657.960999 678.318420,660.049500 674.239929,660.027405 
	C646.087280,659.874756 617.933289,659.955444 589.779785,659.945312 
	C589.147522,659.945068 588.515381,659.756775 587.578979,659.607788 
	C587.578979,567.464539 587.578979,475.444702 587.578979,383.140106 
	C588.911255,383.030670 590.195984,382.832733 591.480774,382.832855 
	C648.620728,382.838196 705.765015,382.460449 762.898499,383.077667 
	C785.940613,383.326569 807.595032,389.554474 825.471191,405.347107 
	C838.216064,416.606598 846.409973,430.627136 850.290405,447.097748 
	C855.882385,470.832458 855.605652,494.317078 845.896362,517.073120 
	C837.401123,536.983704 822.874512,550.961609 802.972656,559.398682 
	C800.835022,560.304871 798.710083,561.240845 796.198730,562.274170 
M704.500122,454.230072 
	C695.907471,454.230072 687.314819,454.230072 678.223022,454.230072 
	C678.223022,467.822815 678.159180,480.915344 678.370544,494.003387 
	C678.384216,494.852600 680.510132,496.384338 681.661560,496.392029 
	C701.958923,496.527618 722.261780,496.722321 742.554016,496.364441 
	C753.471375,496.171906 759.730042,490.962311 761.624268,480.859863 
	C763.705566,469.760010 760.287964,455.293243 742.919495,454.592468 
	C730.461792,454.089813 717.974304,454.324402 704.500122,454.230072 
z"/>
<path fill="#0F0F0F" opacity="1.000000" stroke="none" 
	d="
M338.070251,740.000000 
	C338.070251,730.857117 338.070251,722.214233 338.070251,713.273132 
	C340.210144,713.273132 342.097504,713.273132 344.314362,713.273132 
	C348.606323,731.164062 352.902222,749.071472 357.198151,766.978943 
	C357.546143,767.031372 357.894135,767.083801 358.242126,767.136230 
	C362.540009,749.050476 366.837891,730.964783 371.153809,712.803223 
	C373.154907,712.803223 374.956085,712.803223 376.980072,712.803223 
	C376.980072,734.064758 376.980072,755.181580 376.980072,776.697815 
	C375.903931,776.793579 374.708160,776.900024 373.166199,777.037292 
	C373.166199,759.295532 373.166199,741.853333 373.166199,724.411194 
	C372.858521,724.361511 372.550873,724.311829 372.243195,724.262146 
	C368.100403,741.759705 363.957642,759.257202 359.858398,776.570801 
	C356.325531,777.819885 355.318207,776.368225 354.614624,773.309204 
	C351.225372,758.573914 347.572998,743.899109 344.009583,729.203918 
	C343.629913,727.638123 343.221405,726.079346 342.147064,724.594299 
	C342.147064,741.882324 342.147064,759.170288 342.147064,776.404907 
	C338.160400,776.939880 338.093323,776.940063 338.082825,773.489014 
	C338.049316,762.492798 338.070312,751.496338 338.070251,740.000000 
z"/>
<path fill="#0C0C0C" opacity="1.000000" stroke="none" 
	d="
M248.622528,757.250122 
	C249.558334,761.014709 250.358444,764.388062 251.158539,767.761475 
	C251.398468,767.769104 251.638397,767.776672 251.878311,767.784241 
	C256.184021,749.583984 260.489746,731.383728 264.850403,712.951172 
	C266.904266,712.951172 268.791809,712.951172 270.853027,712.951172 
	C270.853027,734.200806 270.853027,755.295776 270.853027,776.776367 
	C269.674164,776.841248 268.495544,776.906128 267.077759,776.984131 
	C267.077759,758.977539 267.077759,741.361633 267.077759,723.745728 
	C266.787231,723.687805 266.496674,723.629883 266.206146,723.571960 
	C264.500031,730.620850 262.770905,737.664307 261.093445,744.720032 
	C258.827332,754.251831 256.481232,763.767273 254.427109,773.345093 
	C253.771393,776.402527 252.715775,777.855530 249.202438,776.534668 
	C245.095291,759.557312 240.944397,742.399109 236.793503,725.240845 
	C236.464462,725.282898 236.135422,725.324890 235.806381,725.366882 
	C235.806381,735.751343 235.806427,746.135803 235.806335,756.520264 
	C235.806290,762.347717 235.937225,768.180603 235.698746,773.998291 
	C235.649139,775.208740 234.231262,776.362976 233.443939,777.543152 
	C233.009689,777.295044 232.575439,777.046936 232.141190,776.798828 
	C232.141190,755.707275 232.141190,734.615723 232.141190,713.250000 
	C233.912689,713.250000 235.656998,713.250000 238.045639,713.250000 
	C241.482437,727.604248 244.984634,742.231628 248.622528,757.250122 
z"/>
<path fill="#0C0C0C" opacity="1.000000" stroke="none" 
	d="
M294.036194,735.018005 
	C294.036194,749.149231 294.036194,762.783813 294.036194,776.713013 
	C291.476807,777.313599 290.011292,777.313904 290.027832,773.994873 
	C290.128113,753.869385 290.077789,733.743103 290.077789,713.206299 
	C292.015228,713.119385 293.746124,713.041748 295.674866,712.955200 
	C301.867065,730.234314 307.994904,747.333923 314.122772,764.433472 
	C314.356567,764.402100 314.590332,764.370728 314.824127,764.339294 
	C314.824127,747.389221 314.824127,730.439087 314.824127,713.489014 
	C315.247162,713.159363 315.670197,712.829712 316.093262,712.500122 
	C317.043030,713.530579 318.812988,714.554504 318.821320,715.592590 
	C318.984528,735.884033 318.942566,756.177185 318.942566,776.543579 
	C315.436340,777.813110 313.926178,776.691650 312.773254,773.311646 
	C307.365234,757.456970 301.664581,741.702209 296.056122,725.916077 
	C295.645844,724.761292 295.137817,723.641113 294.036194,722.684937 
	C294.036194,726.630432 294.036194,730.575867 294.036194,735.018005 
z"/>
<path fill="#1C1C1C" opacity="1.000000" stroke="none" 
	d="
M619.623657,777.942932 
	C609.315552,778.023987 604.174011,774.191223 603.684082,764.462402 
	C603.032227,751.518066 603.082031,738.495911 603.676636,725.546021 
	C604.086670,716.617859 609.330017,712.081726 617.204895,711.968018 
	C625.394897,711.849792 630.998291,716.355042 631.449707,725.371216 
	C632.106140,738.483154 631.922424,751.663635 631.473206,764.793518 
	C631.235596,771.735107 627.390930,776.616699 619.623657,777.942932 
M609.075073,721.003479 
	C608.716370,722.274109 608.052917,723.543030 608.045898,724.815613 
	C607.971436,738.289124 607.784729,751.768433 608.105530,765.234741 
	C608.240540,770.903870 612.196411,774.036438 617.588135,773.997437 
	C622.964844,773.958557 626.809082,770.856812 626.967651,765.102417 
	C627.329651,751.972473 627.209961,738.826355 627.113342,725.688110 
	C627.081604,721.372681 625.177734,717.800720 620.797058,716.501831 
	C616.298889,715.168213 612.212402,716.007568 609.075073,721.003479 
z"/>
<path fill="#060606" opacity="1.000000" stroke="none" 
	d="
M835.276733,755.776611 
	C835.939697,772.177063 831.664307,778.132446 814.324524,777.030457 
	C812.038208,776.885193 809.734741,777.010498 807.195923,777.010498 
	C807.195923,755.662231 807.195923,734.623352 807.195923,713.249817 
	C812.884277,713.249817 818.688904,712.745178 824.365417,713.382324 
	C830.909119,714.116882 834.820618,719.065552 835.058655,726.374756 
	C835.372375,736.009949 835.225586,745.660095 835.276733,755.776611 
M811.096252,769.316956 
	C810.769043,771.835571 811.259766,773.486389 814.420349,773.121765 
	C816.554993,772.875427 818.741882,773.120850 820.902283,773.050659 
	C826.877991,772.856506 830.661438,769.950256 830.818420,764.103516 
	C831.161926,751.306885 831.136047,738.487549 830.772705,725.691345 
	C830.639709,721.006714 827.734741,717.514526 822.640503,717.085938 
	C818.906372,716.771912 815.124573,717.024475 811.096191,717.024475 
	C811.096191,734.471863 811.096191,751.411987 811.096252,769.316956 
z"/>
<path fill="#070707" opacity="1.000000" stroke="none" 
	d="
M591.596558,775.255371 
	C591.259705,770.196838 591.019653,765.553528 590.951294,760.907593 
	C590.812439,751.461487 587.826172,748.376709 578.402832,748.166992 
	C576.456543,748.123657 574.508362,748.160706 572.232727,748.160706 
	C572.232727,757.882202 572.232727,767.144043 572.232727,776.750854 
	C570.723511,776.833862 569.530212,776.899536 568.131104,776.976501 
	C568.131104,755.515808 568.131104,734.421326 568.131104,713.362183 
	C573.842651,713.362183 579.644714,712.892761 585.309448,713.570618 
	C587.934814,713.884766 590.999939,715.897644 592.643005,718.066528 
	C598.160583,725.349670 595.164551,740.845032 587.323792,746.091675 
	C594.065552,748.924683 595.311279,754.476746 595.126038,760.852173 
	C594.973938,766.088379 595.095093,771.332520 595.095093,777.075439 
	C594.370605,776.768982 593.070801,776.219177 591.596558,775.255371 
M586.124756,743.039307 
	C590.911194,739.464355 592.851624,728.025330 589.765686,721.575500 
	C587.545410,716.934937 581.723816,715.601257 572.345703,717.587158 
	C572.345703,726.329590 572.345703,735.071960 572.345703,744.513000 
	C576.876709,744.101868 581.111145,743.717651 586.124756,743.039307 
z"/>
<path fill="#101010" opacity="1.000000" stroke="none" 
	d="
M407.478760,727.348755 
	C411.227112,743.949585 414.836792,760.154053 418.469513,776.461914 
	C413.395386,778.621399 413.858582,774.471985 413.140625,772.017700 
	C412.304138,769.158203 411.773163,766.209290 411.085480,763.193298 
	C404.416473,763.193298 397.954712,763.193298 391.681396,763.193298 
	C388.365356,767.350647 391.373169,774.589600 384.038330,776.670532 
	C388.690765,755.516052 393.343201,734.361572 398.015259,713.117981 
	C400.073700,713.117981 401.880096,713.117981 404.240875,713.117981 
	C405.259735,717.666016 406.299896,722.309143 407.478760,727.348755 
M398.522614,729.101074 
	C396.315186,738.960999 394.107758,748.820923 391.834412,758.975220 
	C398.096588,758.975220 404.007996,758.975220 410.394836,758.975220 
	C407.422272,746.097351 404.527710,733.557373 401.633179,721.017334 
	C401.210602,721.062012 400.788025,721.106689 400.365448,721.151367 
	C399.834015,723.535950 399.302582,725.920532 398.522614,729.101074 
z"/>
<path fill="#0D0D0D" opacity="1.000000" stroke="none" 
	d="
M643.862793,714.723572 
	C649.617249,711.132385 655.367554,710.723816 660.583252,714.396912 
	C667.283936,719.115723 666.381836,726.487793 666.332397,733.396484 
	C665.895874,733.717651 665.459351,734.038818 665.022888,734.359985 
	C664.102478,733.269043 662.677734,732.300964 662.375427,731.059448 
	C661.873352,728.998108 662.249390,726.741089 661.976990,724.601990 
	C661.303406,719.313171 658.115295,716.245972 653.274231,716.002319 
	C647.983948,715.736084 644.523865,718.400696 643.324646,723.794189 
	C643.038696,725.080322 642.989197,726.439270 642.986328,727.765076 
	C642.961548,739.261108 642.762695,750.763611 643.110596,762.249146 
	C643.204773,765.359497 644.124512,769.416382 646.226074,771.228088 
	C648.440369,773.136658 652.880005,774.062073 655.683167,773.216125 
	C658.221252,772.450195 660.559265,769.002686 661.699890,766.212158 
	C662.765686,763.604858 662.301575,760.302490 662.217407,757.314270 
	C662.130676,754.235840 663.314514,753.421875 665.992615,754.474060 
	C665.992615,758.544983 666.394043,762.570984 665.905823,766.486084 
	C664.997742,773.767395 659.823059,777.996399 652.572693,778.014526 
	C645.310242,778.032593 639.523499,773.854370 639.224487,766.581787 
	C638.636658,752.286133 638.787964,737.941895 639.235046,723.636658 
	C639.326660,720.704834 642.057373,717.855530 643.862793,714.723572 
z"/>
<path fill="#101010" opacity="1.000000" stroke="none" 
	d="
M766.285583,769.117004 
	C762.908142,776.542786 756.859070,779.485474 749.550476,777.552734 
	C742.281067,775.630371 739.282043,769.927795 739.887878,759.179443 
	C743.614441,758.401001 743.614441,758.401001 743.840393,762.882080 
	C744.305542,772.105408 750.714966,776.366272 758.212219,772.436157 
	C762.635620,770.117371 764.877808,762.521057 761.939453,756.901489 
	C760.167114,753.512024 757.056702,750.737488 754.239380,748.004456 
	C751.747253,745.586975 748.765991,743.682617 746.111511,741.421631 
	C740.989990,737.059570 739.320801,731.377258 740.018799,724.839600 
	C740.901428,716.572510 746.188293,711.815979 754.311768,712.013733 
	C761.695740,712.193481 766.487244,717.134033 767.082703,725.236023 
	C767.178589,726.540039 767.096191,727.857178 767.096191,729.279785 
	C764.271179,730.292358 763.033508,729.601196 763.006287,726.554382 
	C762.990234,724.772888 762.594788,722.899536 761.938293,721.238159 
	C760.403687,717.355286 757.276001,715.861084 753.206665,715.989502 
	C749.282410,716.113464 746.470154,717.926758 745.197632,721.599670 
	C743.065186,727.754944 743.836853,733.510254 748.748901,738.105957 
	C751.896362,741.050720 755.353149,743.680786 758.786804,746.300354 
	C766.386902,752.098816 768.975281,759.535889 766.285583,769.117004 
z"/>
<path fill="#101010" opacity="1.000000" stroke="none" 
	d="
M728.946838,727.078369 
	C727.878174,719.179321 725.479614,716.293640 720.078857,716.011719 
	C712.377869,715.609741 707.400574,723.266357 710.712463,731.709167 
	C712.194031,735.485901 715.618164,738.627563 718.566467,741.663391 
	C721.094055,744.265930 724.270935,746.224609 727.034058,748.614502 
	C731.633179,752.592590 733.429993,757.692627 733.079285,763.752930 
	C732.514099,773.519287 726.431152,779.022888 717.148254,777.917847 
	C709.355225,776.990112 703.810852,768.937744 705.333801,760.540588 
	C705.480530,759.731812 706.649963,759.108521 707.344604,758.399170 
	C708.034058,759.099854 709.089050,759.694092 709.331116,760.525146 
	C709.740479,761.930664 709.554565,763.497375 709.761719,764.976257 
	C710.567078,770.725098 713.206238,773.360535 718.272949,773.569214 
	C723.956909,773.803345 727.286316,771.218018 728.504028,765.509949 
	C729.673584,760.027466 728.306274,755.230896 724.079285,751.509766 
	C719.965271,747.888000 715.588562,744.565796 711.445862,740.975220 
	C705.429626,735.760864 704.736572,728.945984 706.409912,721.775635 
	C707.910278,715.346558 712.804810,711.986694 719.704041,712.006958 
	C726.211853,712.026062 730.555481,715.378967 732.214233,721.958618 
	C732.805786,724.304993 732.888794,726.779541 733.203979,729.195618 
	C732.759644,729.535828 732.315308,729.876038 731.870972,730.216248 
	C730.901123,729.308716 729.931274,728.401123 728.946838,727.078369 
z"/>
<path fill="#0C0C0C" opacity="1.000000" stroke="none" 
	d="
M534.077454,773.701904 
	C534.077332,753.322510 534.077332,733.412292 534.077332,713.137573 
	C539.674500,713.137573 544.967773,712.776367 550.189880,713.231506 
	C556.337219,713.767212 560.361877,718.036072 560.908447,724.457153 
	C561.329529,729.404785 561.346191,734.441101 560.951599,739.390808 
	C560.397644,746.338562 555.817749,750.286987 548.198547,750.832947 
	C545.079285,751.056396 541.930603,750.869934 538.450806,750.869934 
	C538.450806,759.744446 538.450806,768.158264 538.450806,776.570068 
	C535.872498,777.246765 533.731262,777.792664 534.077454,773.701904 
M556.957947,737.960815 
	C556.955688,733.984131 557.142151,729.995911 556.901245,726.033752 
	C556.627991,721.539368 554.728394,717.802856 549.820801,717.173035 
	C546.147400,716.701660 542.364868,717.080017 538.631714,717.080017 
	C538.631714,727.317383 538.631714,737.019104 538.631714,746.691345 
	C551.749023,747.835754 554.602234,746.584656 556.957947,737.960815 
z"/>
<path fill="#191919" opacity="1.000000" stroke="none" 
	d="
M684.033936,746.983948 
	C681.757568,746.983948 679.966125,746.983948 678.022461,746.983948 
	C678.022461,755.824097 678.022461,764.214172 678.022461,773.025940 
	C684.007874,773.025940 689.794067,773.120911 695.574890,772.985291 
	C698.397156,772.919067 699.632812,773.720154 698.551941,776.840576 
	C690.292480,776.840576 682.042053,776.840576 673.536621,776.840576 
	C673.536621,755.601135 673.536621,734.553284 673.536621,713.228027 
	C681.907166,713.228027 690.143188,713.228027 698.378601,713.228027 
	C698.716492,716.825806 698.717712,716.925781 695.781555,716.962158 
	C689.984253,717.033997 684.185425,716.983337 678.101440,716.983337 
	C678.101440,725.652161 678.101440,734.037964 678.101440,742.844055 
	C683.635010,742.844055 689.213501,742.844055 694.987183,742.844055 
	C694.987183,744.355835 694.987183,745.451111 694.987183,746.983948 
	C691.406006,746.983948 687.962402,746.983948 684.033936,746.983948 
z"/>
<path fill="#191919" opacity="1.000000" stroke="none" 
	d="
M785.025757,777.048523 
	C781.251770,777.048523 777.971985,777.048523 774.517212,777.048523 
	C774.517212,755.495972 774.517212,734.449463 774.517212,713.177368 
	C782.995911,713.177368 791.240662,713.177368 799.538757,713.177368 
	C800.573547,716.122742 799.601868,717.104492 796.655823,717.027710 
	C790.870300,716.877075 785.078125,716.983459 779.053711,716.983459 
	C779.053711,725.732361 779.053711,734.115479 779.053711,742.776855 
	C784.601807,742.776855 790.051025,742.776855 795.879395,742.776855 
	C795.958313,744.228882 796.023499,745.427002 796.105042,746.926941 
	C790.335144,746.926941 784.898987,746.926941 779.139771,746.926941 
	C779.139771,755.589783 779.139771,763.982544 779.139771,772.540955 
	C785.901367,773.001404 792.853455,773.467468 799.795837,774.050171 
	C799.864746,774.055908 799.804382,775.602234 799.804382,777.048523 
	C795.070740,777.048523 790.295349,777.048523 785.025757,777.048523 
z"/>
<path fill="#0D0D0D" opacity="1.000000" stroke="none" 
	d="
M486.619812,730.500854 
	C484.433899,724.579590 482.414337,719.013977 480.401031,713.465515 
	C483.721375,712.028137 484.994293,713.527466 485.981750,716.338989 
	C489.320953,725.846497 492.861816,735.283081 497.498566,744.945068 
	C498.418579,742.443054 499.341400,739.942078 500.258148,737.438843 
	C502.883392,730.270691 505.388641,723.054626 508.226532,715.971741 
	C508.811737,714.511169 510.633392,713.546021 511.885162,712.352539 
	C512.338013,712.710938 512.790833,713.069275 513.243652,713.427673 
	C509.801758,722.842285 506.751343,732.425293 502.797516,741.619751 
	C499.471100,749.355347 498.535919,757.197693 498.936646,765.419556 
	C499.114197,769.062500 498.966614,772.721375 498.966614,776.695190 
	C497.568359,776.695190 496.354980,776.695190 494.270477,776.695190 
	C496.803314,760.635559 493.265961,745.478210 486.619812,730.500854 
z"/>
<path fill="#0C0C0C" opacity="1.000000" stroke="none" 
	d="
M460.378479,734.000732 
	C460.378448,747.159180 460.378448,759.817688 460.378448,772.439209 
	C467.076111,774.721008 474.771454,770.799500 480.988098,774.538269 
	C480.873505,775.254089 480.758942,775.969849 480.644348,776.685669 
	C472.596344,776.685669 464.548340,776.685669 456.286804,776.685669 
	C456.286804,755.486755 456.286804,734.400391 456.286804,713.147705 
	C457.575562,713.147705 458.693756,713.147705 460.378479,713.147705 
	C460.378479,719.971924 460.378479,726.736328 460.378479,734.000732 
z"/>
<path fill="#0C0C0C" opacity="1.000000" stroke="none" 
	d="
M429.378479,748.000488 
	C429.378448,756.493652 429.378448,764.486694 429.378448,772.585571 
	C436.236603,773.022766 442.911011,773.436157 449.575226,773.975647 
	C449.687958,773.984741 449.676910,775.522949 449.742859,776.687378 
	C441.595245,776.687378 433.546326,776.687378 425.077393,776.687378 
	C425.077393,757.290588 425.077423,738.007812 425.077423,718.724976 
	C425.077423,716.919128 425.077393,715.113342 425.077393,713.146240 
	C426.577667,713.146240 427.696381,713.146240 429.378479,713.146240 
	C429.378479,724.643005 429.378479,736.071716 429.378479,748.000488 
z"/>
<path fill="#272727" opacity="1.000000" stroke="none" 
	d="
M330.853668,746.000000 
	C330.853668,756.477295 330.853668,766.454590 330.853668,776.572205 
	C327.632507,777.633118 326.152100,777.219910 326.176392,773.496948 
	C326.300446,754.499451 326.298767,735.500366 326.171906,716.502930 
	C326.149872,713.201904 327.264313,712.268616 330.853668,713.372070 
	C330.853668,723.942688 330.853668,734.721313 330.853668,746.000000 
z"/>
<path fill="#060606" opacity="1.000000" stroke="none" 
	d="
M278.743195,769.942627 
	C278.743195,750.826233 278.743195,732.204651 278.743195,713.482117 
	C281.736237,712.401489 283.038910,712.830261 283.017975,716.312805 
	C282.898071,736.280884 282.959625,756.250122 282.959625,776.602173 
	C281.714508,776.747742 280.516327,776.887817 278.743195,777.095093 
	C278.743195,774.649719 278.743195,772.543640 278.743195,769.942627 
z"/>
<path fill="#FCFCFC" opacity="1.000000" stroke="none" 
	d="
M705.000122,454.230072 
	C717.974304,454.324402 730.461792,454.089813 742.919495,454.592468 
	C760.287964,455.293243 763.705566,469.760010 761.624268,480.859863 
	C759.730042,490.962311 753.471375,496.171906 742.554016,496.364441 
	C722.261780,496.722321 701.958923,496.527618 681.661560,496.392029 
	C680.510132,496.384338 678.384216,494.852600 678.370544,494.003387 
	C678.159180,480.915344 678.223022,467.822815 678.223022,454.230072 
	C687.314819,454.230072 695.907471,454.230072 705.000122,454.230072 
z"/>
<path fill="#FEFEFE" opacity="1.000000" stroke="none" 
	d="
M609.243042,720.634033 
	C612.212402,716.007568 616.298889,715.168213 620.797058,716.501831 
	C625.177734,717.800720 627.081604,721.372681 627.113342,725.688110 
	C627.209961,738.826355 627.329651,751.972473 626.967651,765.102417 
	C626.809082,770.856812 622.964844,773.958557 617.588135,773.997437 
	C612.196411,774.036438 608.240540,770.903870 608.105530,765.234741 
	C607.784729,751.768433 607.971436,738.289124 608.045898,724.815613 
	C608.052917,723.543030 608.716370,722.274109 609.243042,720.634033 
z"/>
<path fill="#FCFCFC" opacity="1.000000" stroke="none" 
	d="
M811.096191,768.834595 
	C811.096191,751.411987 811.096191,734.471863 811.096191,717.024475 
	C815.124573,717.024475 818.906372,716.771912 822.640503,717.085938 
	C827.734741,717.514526 830.639709,721.006714 830.772705,725.691345 
	C831.136047,738.487549 831.161926,751.306885 830.818420,764.103516 
	C830.661438,769.950256 826.877991,772.856506 820.902283,773.050659 
	C818.741882,773.120850 816.554993,772.875427 814.420349,773.121765 
	C811.259766,773.486389 810.769043,771.835571 811.096191,768.834595 
z"/>
<path fill="#FCFCFC" opacity="1.000000" stroke="none" 
	d="
M585.735107,743.186401 
	C581.111145,743.717651 576.876709,744.101868 572.345703,744.513000 
	C572.345703,735.071960 572.345703,726.329590 572.345703,717.585938 
	C581.723816,715.601257 587.545410,716.934937 589.765686,721.575500 
	C592.851624,728.025330 590.911194,739.464355 585.735107,743.186401 
z"/>
<path fill="#F7F7F7" opacity="1.000000" stroke="none" 
	d="
M398.646881,728.703125 
	C399.302582,725.920532 399.834015,723.535950 400.365448,721.151367 
	C400.788025,721.106689 401.210602,721.062012 401.633179,721.017334 
	C404.527710,733.557373 407.422272,746.097351 410.394836,758.975220 
	C404.007996,758.975220 398.096588,758.975220 391.834412,758.975220 
	C394.107758,748.820923 396.315186,738.960999 398.646881,728.703125 
z"/>
<path fill="#F7F7F7" opacity="1.000000" stroke="none" 
	d="
M556.924438,738.396729 
	C554.602234,746.584656 551.749023,747.835754 538.631714,746.691345 
	C538.631714,737.019104 538.631714,727.317383 538.631714,717.080017 
	C542.364868,717.080017 546.147400,716.701660 549.820801,717.173035 
	C554.728394,717.802856 556.627991,721.539368 556.901245,726.033752 
	C557.142151,729.995911 556.955688,733.984131 556.924438,738.396729 
z"/>
</svg>