<svg xmlns="http://www.w3.org/2000/svg" fill="none" viewBox="-0.855 -0.855 24 24" id="Instagram--Streamline-Core" height="24" width="24"><desc>Instagram Streamline Icon: https://streamlinehq.com</desc><g id="instagram"><g id="Group 4546"><path id="Vector" stroke="#000000" stroke-linecap="round" stroke-linejoin="round" d="M16.45193057142857 5.801832257142856c-0.21987492857142857 0 -0.39803571428571427 -0.17820855 -0.39803571428571427 -0.39803571428571427s0.1781607857142857 -0.39803571428571427 0.39803571428571427 -0.39803571428571427" stroke-width="1.71"></path><path id="Vector_2" stroke="#000000" stroke-linecap="round" stroke-linejoin="round" d="M16.45193057142857 5.801832257142856c0.21987492857142857 0 0.39803571428571427 -0.17820855 0.39803571428571427 -0.39803571428571427s-0.1781607857142857 -0.39803571428571427 -0.39803571428571427 -0.39803571428571427" stroke-width="1.71"></path></g><path id="Rectangle 2" stroke="#000000" stroke-linecap="round" stroke-linejoin="round" d="M1.366498002857143 5.463294921428571c0 -2.262482764285714 1.8341071757142857 -4.096602677142857 4.096605861428571 -4.096602677142857h10.924344921428572c2.262435 0 4.096583571428571 1.8341199128571428 4.096583571428571 4.096602677142857v10.924313078571428c0 2.262435 -1.8341485714285712 4.096583571428571 -4.096583571428571 4.096583571428571H5.463103864285714c-2.2624986857142857 0 -4.096605861428571 -1.8341485714285712 -4.096605861428571 -4.096583571428571V5.463294921428571Z" stroke-width="1.71"></path><path id="Ellipse 11" stroke="#000000" stroke-linecap="round" stroke-linejoin="round" d="M6.8653200000000005 10.925284285714286a4.059964285714285 4.059964285714285 0 1 0 8.11992857142857 0 4.059964285714285 4.059964285714285 0 1 0 -8.11992857142857 0" stroke-width="1.71"></path></g></svg>